<?xml version="1.0" encoding="UTF-8" standalone="no"?>
<!-- Created with Inkscape (http://www.inkscape.org/) -->

<svg
   version="1.1"
   id="svg2"
   xml:space="preserve"
   width="562.20935"
   height="79.697868"
   viewBox="0 0 562.20935 79.697868"
   sodipodi:docname="favtext-white.ai"
   xmlns:inkscape="http://www.inkscape.org/namespaces/inkscape"
   xmlns:sodipodi="http://sodipodi.sourceforge.net/DTD/sodipodi-0.dtd"
   xmlns="http://www.w3.org/2000/svg"
   xmlns:svg="http://www.w3.org/2000/svg"><defs
     id="defs6"><clipPath
       clipPathUnits="userSpaceOnUse"
       id="clipPath16"><path
         d="M 0,59.773 H 421.657 V 0 H 0 Z"
         id="path14" /></clipPath><clipPath
       clipPathUnits="userSpaceOnUse"
       id="clipPath24"><path
         d="M 306.726,47.2487 H 421.657 V 11.5619 H 306.726 Z"
         id="path22" /></clipPath><clipPath
       clipPathUnits="userSpaceOnUse"
       id="clipPath88"><path
         d="M 0,59.773 H 421.657 V 0 H 0 Z"
         id="path86" /></clipPath></defs><sodipodi:namedview
     id="namedview4"
     pagecolor="#ffffff"
     bordercolor="#666666"
     borderopacity="1.0"
     inkscape:pageshadow="2"
     inkscape:pageopacity="0.0"
     inkscape:pagecheckerboard="0" /><g
     id="g8"
     inkscape:groupmode="layer"
     inkscape:label="favtext-white"
     transform="matrix(1.3333333,0,0,-1.3333333,0,79.697867)"><g
       id="g10"><g
         id="g12"
         clip-path="url(#clipPath16)"><g
           id="g18"><g
             id="g20" /><g
             id="g76"><g
               clip-path="url(#clipPath24)"
               id="g74"><g
                 transform="translate(316.8757,23.5515)"
                 id="g28"><path
                   d="m 0,0 c 1.344,0 2.535,0.308 3.572,0.923 1.036,0.615 1.898,1.501 2.584,2.656 0.687,1.155 1.173,2.538 1.456,4.147 0.278,1.572 0.285,2.96 0.024,4.162 -0.262,1.203 -0.796,2.146 -1.604,2.827 -0.808,0.682 -1.893,1.023 -3.257,1.023 -1.421,0 -2.666,-0.361 -3.734,-1.079 C -2.028,13.939 -2.904,12.973 -3.587,11.76 -4.27,10.548 -4.741,9.204 -5.002,7.726 -5.269,6.211 -5.266,4.874 -4.991,3.714 -4.719,2.554 -4.168,1.646 -3.342,0.987 -2.516,0.329 -1.402,0 0,0 m -2.001,-11.989 c -1.619,0 -2.975,0.206 -4.066,0.618 -1.093,0.412 -1.966,0.952 -2.621,1.619 -0.653,0.668 -1.14,1.381 -1.462,2.138 l 3.002,1.875 c 0.232,-0.398 0.536,-0.855 0.908,-1.37 0.373,-0.517 0.93,-0.966 1.674,-1.35 0.741,-0.384 1.77,-0.575 3.087,-0.575 1.761,0 3.29,0.426 4.585,1.278 1.297,0.853 2.105,2.188 2.425,4.006 L 6.312,0.682 H 6.029 C 5.712,0.284 5.278,-0.206 4.726,-0.789 4.174,-1.371 3.438,-1.888 2.521,-2.337 1.604,-2.787 0.435,-3.012 -0.986,-3.012 c -1.761,0 -3.266,0.417 -4.517,1.25 -1.25,0.833 -2.14,2.046 -2.668,3.637 -0.529,1.591 -0.593,3.522 -0.192,5.794 0.394,2.236 1.13,4.184 2.209,5.846 1.08,1.662 2.4,2.949 3.963,3.863 1.562,0.914 3.262,1.372 5.099,1.372 1.421,0 2.508,-0.235 3.264,-0.704 0.756,-0.468 1.306,-0.999 1.651,-1.59 C 8.169,15.864 8.431,15.377 8.611,15 h 0.341 l 0.611,3.465 h 3.238 L 8.844,-3.978 C 8.513,-5.853 7.82,-7.38 6.765,-8.559 5.709,-9.737 4.421,-10.604 2.896,-11.158 c -1.522,-0.554 -3.155,-0.831 -4.897,-0.831"
                   style="fill:#2563eb;fill-opacity:1;fill-rule:nonzero;stroke:none"
                   id="path26" /></g><g
                 transform="translate(334.2009,32.8689)"
                 id="g32"><path
                   d="m 0,0 c 0.238,1.01 0.657,1.97 1.266,2.87 0.705,1.05 1.607,1.91 2.691,2.56 1.087,0.66 2.295,0.99 3.635,0.99 1.21,0 2.211,-0.28 3.012,-0.84 C 11.395,5.02 11.951,4.26 12.271,3.3 12.591,2.33 12.637,1.23 12.42,0 Z M 15.568,-1.48 C 15.929,0.56 15.96,2.27 15.665,3.66 15.372,5.06 14.85,6.18 14.088,7.02 13.327,7.87 12.427,8.49 11.382,8.86 10.349,9.24 9.253,9.43 8.122,9.43 6.152,9.43 4.348,8.95 2.709,7.99 1.06,7.03 -0.317,5.69 -1.437,3.99 -2.559,2.28 -3.317,0.3 -3.711,-1.93 c -0.394,-2.24 -0.328,-4.19 0.195,-5.87 0.523,-1.69 1.463,-2.99 2.818,-3.93 1.355,-0.93 3.085,-1.39 5.184,-1.39 1.481,0 2.851,0.229 4.111,0.68 1.26,0.46 2.375,1.11 3.321,1.94 0.957,0.83 1.696,1.79 2.229,2.89 L 11.068,-6.7 C 10.654,-7.46 10.144,-8.09 9.533,-8.601 8.924,-9.11 8.236,-9.49 7.473,-9.74 6.718,-9.99 5.897,-10.11 5.017,-10.11 c -1.36,0 -2.489,0.29 -3.414,0.88 -0.915,0.6 -1.563,1.459 -1.932,2.6 -0.337,1.04 -0.399,2.279 -0.192,3.73 h 15.839 z"
                   style="fill:#2563eb;fill-opacity:1;fill-rule:nonzero;stroke:none"
                   id="path30" /></g><g
                 transform="translate(370.1765,37.1301)"
                 id="g36"><path
                   d="m 0,0 -3.161,-0.853 c -0.101,0.502 -0.292,0.993 -0.571,1.471 -0.282,0.478 -0.706,0.873 -1.276,1.186 -0.57,0.312 -1.344,0.468 -2.318,0.468 -1.336,0 -2.5,-0.304 -3.492,-0.916 -0.994,-0.61 -1.573,-1.384 -1.738,-2.322 -0.147,-0.833 0.039,-1.491 0.561,-1.974 0.52,-0.483 1.396,-0.886 2.628,-1.207 l 3.097,-0.796 c 1.869,-0.474 3.195,-1.196 3.979,-2.166 0.786,-0.971 1.045,-2.218 0.775,-3.743 -0.219,-1.25 -0.775,-2.367 -1.664,-3.352 -0.888,-0.985 -2.021,-1.761 -3.399,-2.33 -1.38,-0.568 -2.916,-0.851 -4.611,-0.851 -2.226,0 -3.983,0.482 -5.271,1.448 -1.287,0.966 -1.962,2.377 -2.022,4.233 l 3.321,0.795 c 0.096,-1.174 0.516,-2.054 1.26,-2.641 0.744,-0.588 1.802,-0.881 3.175,-0.881 1.563,0 2.866,0.334 3.906,1.001 1.042,0.668 1.644,1.471 1.809,2.408 0.134,0.758 -0.018,1.395 -0.458,1.91 -0.439,0.517 -1.185,0.903 -2.239,1.158 l -3.486,0.851 c -1.915,0.474 -3.25,1.21 -4.007,2.209 -0.757,0.999 -1.002,2.252 -0.736,3.758 0.216,1.231 0.756,2.32 1.62,3.267 0.863,0.947 1.945,1.69 3.248,2.23 1.302,0.539 2.721,0.81 4.256,0.81 2.158,0 3.772,-0.474 4.84,-1.421 C -0.904,2.803 -0.247,1.553 0,0"
                   style="fill:#2563eb;fill-opacity:1;fill-rule:nonzero;stroke:none"
                   id="path34" /></g><g
                 transform="translate(381.696,20.3083)"
                 id="g40"><path
                   d="m 0,0 c -0.244,-0.08 -0.57,-0.17 -0.996,-0.26 -0.426,-0.09 -0.943,-0.13 -1.573,-0.13 -0.951,0 -1.835,0.201 -2.672,0.611 -0.83,0.399 -1.471,1.019 -1.912,1.859 -0.445,0.83 -0.559,1.88 -0.335,3.15 l 2.405,13.641 h -3.29 l 0.501,2.839 h 3.29 l 0.922,5.23 h 3.349 l -0.921,-5.23 h 4.66 L 2.927,18.871 h -4.66 L -3.978,6.141 C -4.146,5.19 -4.131,4.48 -3.932,4.021 -3.734,3.551 -3.431,3.23 -3.018,3.08 -2.605,2.92 -2.149,2.841 -1.66,2.841 c 0.37,0 0.676,0.029 0.923,0.069 0.247,0.04 0.444,0.08 0.588,0.101 z"
                   style="fill:#2563eb;fill-opacity:1;fill-rule:nonzero;stroke:none"
                   id="path38" /></g><g
                 transform="translate(394.7204,22.7556)"
                 id="g44"><path
                   d="m 0,0 c 1.496,0 2.795,0.384 3.896,1.15 1.101,0.768 1.994,1.777 2.678,3.027 0.685,1.25 1.155,2.603 1.413,4.062 0.257,1.458 0.264,2.816 0.023,4.076 -0.242,1.26 -0.778,2.277 -1.607,3.054 -0.829,0.776 -1.992,1.165 -3.488,1.165 -1.496,0 -2.796,-0.389 -3.898,-1.165 C -2.086,14.592 -2.98,13.575 -3.666,12.315 -4.353,11.055 -4.824,9.697 -5.081,8.239 -5.339,6.78 -5.345,5.427 -5.102,4.177 -4.858,2.927 -4.321,1.918 -3.49,1.15 -2.66,0.384 -1.496,0 0,0 m -0.531,-3.011 c -1.97,0 -3.613,0.469 -4.93,1.407 -1.316,0.937 -2.24,2.249 -2.771,3.934 -0.532,1.686 -0.598,3.655 -0.201,5.909 0.401,2.272 1.164,4.256 2.291,5.951 1.128,1.695 2.516,3.012 4.163,3.949 1.647,0.938 3.456,1.406 5.425,1.406 1.97,0 3.613,-0.468 4.93,-1.406 1.317,-0.937 2.239,-2.254 2.77,-3.949 0.53,-1.695 0.594,-3.679 0.194,-5.951 C 10.942,5.985 10.181,4.016 9.055,2.33 7.928,0.645 6.542,-0.667 4.895,-1.604 3.247,-2.542 1.438,-3.011 -0.531,-3.011"
                   style="fill:#2563eb;fill-opacity:1;fill-rule:nonzero;stroke:none"
                   id="path42" /></g><g
                 transform="translate(406.8503,20.1989)"
                 id="g48"><path
                   d="M 0,0 3.848,21.818 H 7.086 L 6.505,18.522 h 0.227 c 0.588,1.08 1.462,1.956 2.622,2.628 1.161,0.673 2.394,1.009 3.701,1.009 0.246,0 0.552,-0.005 0.922,-0.015 0.367,-0.009 0.643,-0.023 0.83,-0.042 l -0.601,-3.409 c -0.109,0.028 -0.359,0.073 -0.751,0.135 -0.392,0.061 -0.809,0.092 -1.255,0.092 -1.06,0 -2.044,-0.22 -2.951,-0.661 C 8.344,17.819 7.583,17.213 6.969,16.441 6.354,15.669 5.961,14.792 5.787,13.806 L 3.353,0 Z"
                   style="fill:#2563eb;fill-opacity:1;fill-rule:nonzero;stroke:none"
                   id="path46" /></g><g
                 transform="translate(316.8757,23.5515)"
                 id="g52"><path
                   d="m 0,0 c 1.344,0 2.535,0.308 3.572,0.923 1.036,0.615 1.898,1.501 2.584,2.656 0.687,1.155 1.173,2.538 1.456,4.147 0.278,1.572 0.285,2.96 0.024,4.162 -0.262,1.203 -0.796,2.146 -1.604,2.827 -0.808,0.682 -1.893,1.023 -3.257,1.023 -1.421,0 -2.666,-0.361 -3.734,-1.079 C -2.028,13.939 -2.904,12.973 -3.587,11.76 -4.27,10.548 -4.741,9.204 -5.002,7.726 -5.269,6.211 -5.266,4.874 -4.991,3.714 -4.719,2.554 -4.168,1.646 -3.342,0.987 -2.516,0.329 -1.402,0 0,0 m -2.001,-11.989 c -1.619,0 -2.975,0.206 -4.066,0.618 -1.093,0.412 -1.966,0.952 -2.621,1.619 -0.653,0.668 -1.14,1.381 -1.462,2.138 l 3.002,1.875 c 0.232,-0.398 0.536,-0.855 0.908,-1.37 0.373,-0.517 0.93,-0.966 1.674,-1.35 0.741,-0.384 1.77,-0.575 3.087,-0.575 1.761,0 3.29,0.426 4.585,1.278 1.297,0.853 2.105,2.188 2.425,4.006 L 6.312,0.682 H 6.029 C 5.712,0.284 5.278,-0.206 4.726,-0.789 4.174,-1.371 3.438,-1.888 2.521,-2.337 1.604,-2.787 0.435,-3.012 -0.986,-3.012 c -1.761,0 -3.266,0.417 -4.517,1.25 -1.25,0.833 -2.14,2.046 -2.668,3.637 -0.529,1.591 -0.593,3.522 -0.192,5.794 0.394,2.236 1.13,4.184 2.209,5.846 1.08,1.662 2.4,2.949 3.963,3.863 1.562,0.914 3.262,1.372 5.099,1.372 1.421,0 2.508,-0.235 3.264,-0.704 0.756,-0.468 1.306,-0.999 1.651,-1.59 C 8.169,15.864 8.431,15.377 8.611,15 h 0.341 l 0.611,3.465 h 3.238 L 8.844,-3.978 C 8.513,-5.853 7.82,-7.38 6.765,-8.559 5.709,-9.737 4.421,-10.604 2.896,-11.158 c -1.522,-0.554 -3.155,-0.831 -4.897,-0.831"
                   style="fill:#2563eb;fill-opacity:1;fill-rule:nonzero;stroke:none"
                   id="path50" /></g><g
                 transform="translate(334.2009,32.8689)"
                 id="g56"><path
                   d="m 0,0 c 0.238,1.01 0.657,1.97 1.266,2.87 0.705,1.05 1.607,1.91 2.691,2.56 1.087,0.66 2.295,0.99 3.635,0.99 1.21,0 2.211,-0.28 3.012,-0.84 C 11.395,5.02 11.951,4.26 12.271,3.3 12.591,2.33 12.637,1.23 12.42,0 Z M 15.568,-1.48 C 15.929,0.56 15.96,2.27 15.665,3.66 15.372,5.06 14.85,6.18 14.088,7.02 13.327,7.87 12.427,8.49 11.382,8.86 10.349,9.24 9.253,9.43 8.122,9.43 6.152,9.43 4.348,8.95 2.709,7.99 1.06,7.03 -0.317,5.69 -1.437,3.99 -2.559,2.28 -3.317,0.3 -3.711,-1.93 c -0.394,-2.24 -0.328,-4.19 0.195,-5.87 0.523,-1.69 1.463,-2.99 2.818,-3.93 1.355,-0.93 3.085,-1.39 5.184,-1.39 1.481,0 2.851,0.229 4.111,0.68 1.26,0.46 2.375,1.11 3.321,1.94 0.957,0.83 1.696,1.79 2.229,2.89 L 11.068,-6.7 C 10.654,-7.46 10.144,-8.09 9.533,-8.601 8.924,-9.11 8.236,-9.49 7.473,-9.74 6.718,-9.99 5.897,-10.11 5.017,-10.11 c -1.36,0 -2.489,0.29 -3.414,0.88 -0.915,0.6 -1.563,1.459 -1.932,2.6 -0.337,1.04 -0.399,2.279 -0.192,3.73 h 15.839 z"
                   style="fill:#2563eb;fill-opacity:1;fill-rule:nonzero;stroke:none"
                   id="path54" /></g><g
                 transform="translate(370.1765,37.1301)"
                 id="g60"><path
                   d="m 0,0 -3.161,-0.853 c -0.101,0.502 -0.292,0.993 -0.571,1.471 -0.282,0.478 -0.706,0.873 -1.276,1.186 -0.57,0.312 -1.344,0.468 -2.318,0.468 -1.336,0 -2.5,-0.304 -3.492,-0.916 -0.994,-0.61 -1.573,-1.384 -1.738,-2.322 -0.147,-0.833 0.039,-1.491 0.561,-1.974 0.52,-0.483 1.396,-0.886 2.628,-1.207 l 3.097,-0.796 c 1.869,-0.474 3.195,-1.196 3.979,-2.166 0.786,-0.971 1.045,-2.218 0.775,-3.743 -0.219,-1.25 -0.775,-2.367 -1.664,-3.352 -0.888,-0.985 -2.021,-1.761 -3.399,-2.33 -1.38,-0.568 -2.916,-0.851 -4.611,-0.851 -2.226,0 -3.983,0.482 -5.271,1.448 -1.287,0.966 -1.962,2.377 -2.022,4.233 l 3.321,0.795 c 0.096,-1.174 0.516,-2.054 1.26,-2.641 0.744,-0.588 1.802,-0.881 3.175,-0.881 1.563,0 2.866,0.334 3.906,1.001 1.042,0.668 1.644,1.471 1.809,2.408 0.134,0.758 -0.018,1.395 -0.458,1.91 -0.439,0.517 -1.185,0.903 -2.239,1.158 l -3.486,0.851 c -1.915,0.474 -3.25,1.21 -4.007,2.209 -0.757,0.999 -1.002,2.252 -0.736,3.758 0.216,1.231 0.756,2.32 1.62,3.267 0.863,0.947 1.945,1.69 3.248,2.23 1.302,0.539 2.721,0.81 4.256,0.81 2.158,0 3.772,-0.474 4.84,-1.421 C -0.904,2.803 -0.247,1.553 0,0"
                   style="fill:#2563eb;fill-opacity:1;fill-rule:nonzero;stroke:none"
                   id="path58" /></g><g
                 transform="translate(381.696,20.3083)"
                 id="g64"><path
                   d="m 0,0 c -0.244,-0.08 -0.57,-0.17 -0.996,-0.26 -0.426,-0.09 -0.943,-0.13 -1.573,-0.13 -0.951,0 -1.835,0.201 -2.672,0.611 -0.83,0.399 -1.471,1.019 -1.912,1.859 -0.445,0.83 -0.559,1.88 -0.335,3.15 l 2.405,13.641 h -3.29 l 0.501,2.839 h 3.29 l 0.922,5.23 h 3.349 l -0.921,-5.23 h 4.66 L 2.927,18.871 h -4.66 L -3.978,6.141 C -4.146,5.19 -4.131,4.48 -3.932,4.021 -3.734,3.551 -3.431,3.23 -3.018,3.08 -2.605,2.92 -2.149,2.841 -1.66,2.841 c 0.37,0 0.676,0.029 0.923,0.069 0.247,0.04 0.444,0.08 0.588,0.101 z"
                   style="fill:#2563eb;fill-opacity:1;fill-rule:nonzero;stroke:none"
                   id="path62" /></g><g
                 transform="translate(394.7204,22.7556)"
                 id="g68"><path
                   d="m 0,0 c 1.496,0 2.795,0.384 3.896,1.15 1.101,0.768 1.994,1.777 2.678,3.027 0.685,1.25 1.155,2.603 1.413,4.062 0.257,1.458 0.264,2.816 0.023,4.076 -0.242,1.26 -0.778,2.277 -1.607,3.054 -0.829,0.776 -1.992,1.165 -3.488,1.165 -1.496,0 -2.796,-0.389 -3.898,-1.165 C -2.086,14.592 -2.98,13.575 -3.666,12.315 -4.353,11.055 -4.824,9.697 -5.081,8.239 -5.339,6.78 -5.345,5.427 -5.102,4.177 -4.858,2.927 -4.321,1.918 -3.49,1.15 -2.66,0.384 -1.496,0 0,0 m -0.531,-3.011 c -1.97,0 -3.613,0.469 -4.93,1.407 -1.316,0.937 -2.24,2.249 -2.771,3.934 -0.532,1.686 -0.598,3.655 -0.201,5.909 0.401,2.272 1.164,4.256 2.291,5.951 1.128,1.695 2.516,3.012 4.163,3.949 1.647,0.938 3.456,1.406 5.425,1.406 1.97,0 3.613,-0.468 4.93,-1.406 1.317,-0.937 2.239,-2.254 2.77,-3.949 0.53,-1.695 0.594,-3.679 0.194,-5.951 C 10.942,5.985 10.181,4.016 9.055,2.33 7.928,0.645 6.542,-0.667 4.895,-1.604 3.247,-2.542 1.438,-3.011 -0.531,-3.011"
                   style="fill:#2563eb;fill-opacity:1;fill-rule:nonzero;stroke:none"
                   id="path66" /></g><g
                 transform="translate(406.8503,20.1989)"
                 id="g72"><path
                   d="M 0,0 3.848,21.818 H 7.086 L 6.505,18.522 h 0.227 c 0.588,1.08 1.462,1.956 2.622,2.628 1.161,0.673 2.394,1.009 3.701,1.009 0.246,0 0.552,-0.005 0.922,-0.015 0.367,-0.009 0.643,-0.023 0.83,-0.042 l -0.601,-3.409 c -0.109,0.028 -0.359,0.073 -0.751,0.135 -0.392,0.061 -0.809,0.092 -1.255,0.092 -1.06,0 -2.044,-0.22 -2.951,-0.661 C 8.344,17.819 7.583,17.213 6.969,16.441 6.354,15.669 5.961,14.792 5.787,13.806 L 3.353,0 Z"
                   style="fill:#2563eb;fill-opacity:1;fill-rule:nonzero;stroke:none"
                   id="path70" /></g></g></g></g></g></g><g
       id="g78"
       transform="translate(2.5326,58.4055)"><path
         d="M 0,0 H -2.533 V -58.001 H 13.468 V -35 h 23 v 13 h -23 v 10 h 25 V 0 Z"
         style="fill:#f9fafb;fill-opacity:1;fill-rule:nonzero;stroke:none"
         id="path80" /></g><g
       id="g82"><g
         id="g84"
         clip-path="url(#clipPath88)"><g
           id="g90"
           transform="translate(85.7824,29.8869)"><path
             d="m 0,0 c 0,3.484 -0.459,6.425 -1.378,8.821 -0.919,2.396 -2.273,4.214 -4.062,5.454 -1.79,1.241 -3.992,1.862 -6.605,1.862 -2.614,0 -4.816,-0.621 -6.606,-1.862 -1.789,-1.24 -3.144,-3.058 -4.062,-5.454 -0.919,-2.396 -1.378,-5.337 -1.378,-8.821 0,-3.486 0.459,-6.425 1.378,-8.822 0.918,-2.395 2.273,-4.214 4.062,-5.454 1.79,-1.241 3.992,-1.861 6.606,-1.861 2.613,0 4.815,0.62 6.605,1.861 1.789,1.24 3.143,3.059 4.062,5.454 C -0.459,-6.425 0,-3.486 0,0 m 16.25,0 c 0,-6.478 -1.26,-11.937 -3.778,-16.378 -2.52,-4.442 -5.919,-7.803 -10.2,-10.085 -4.28,-2.283 -9.053,-3.424 -14.317,-3.424 -5.304,0 -10.091,1.151 -14.361,3.452 -4.272,2.301 -7.661,5.672 -10.171,10.113 -2.509,4.442 -3.764,9.882 -3.764,16.322 0,6.478 1.255,11.937 3.764,16.378 2.51,4.441 5.899,7.803 10.171,10.085 4.27,2.282 9.057,3.424 14.361,3.424 5.264,0 10.037,-1.142 14.317,-3.424 4.281,-2.282 7.68,-5.644 10.2,-10.085 C 14.99,11.937 16.25,6.478 16.25,0"
             style="fill:#f9fafb;fill-opacity:1;fill-rule:nonzero;stroke:none"
             id="path92" /></g><g
           id="g94"
           transform="translate(125.0002,46.4055)"><path
             d="m 0,0 h 5.534 c 1.839,0 3.418,-0.249 4.73,-0.746 1.301,-0.506 2.315,-1.271 3.02,-2.315 0.706,-1.043 1.053,-2.394 1.053,-4.053 0,-1.64 -0.347,-2.961 -1.053,-3.985 -0.705,-1.013 -1.719,-1.749 -3.02,-2.215 C 8.952,-13.771 7.373,-14 5.534,-14 H 0 Z m 20.706,-24.368 c 3.01,1.426 5.373,3.49 7.098,6.152 1.834,2.851 2.761,6.35 2.761,10.507 0,4.117 -0.897,7.646 -2.691,10.587 C 26.079,5.829 23.567,8.082 20.337,9.647 17.107,11.222 13.349,12 9.042,12 H -16 V -46 H 0 v 19 h 5.539 l 10.339,-19 h 16.611 z"
             style="fill:#f9fafb;fill-opacity:1;fill-rule:nonzero;stroke:none"
             id="path96" /></g><g
           id="g98"
           transform="translate(165.0002,58.4055)"><path
             d="m 0,0 h 19.933 l 13.13,-32 h 0.663 L 46.857,0 H 67 V -58 H 52 v 34 H 51.548 L 38.665,-57 H 28.245 L 15.448,-24 H 15 V -58 H 0 Z"
             style="fill:#f9fafb;fill-opacity:1;fill-rule:nonzero;stroke:none"
             id="path100" /></g><g
           id="g102"
           transform="translate(263.0456,23.405)"><path
             d="M 0,0 5.737,19 H 6.182 L 11.919,0 Z M 16.721,35 H -4.802 l -19.151,-58 h 17.12 l 3.318,11 h 18.949 l 3.318,-11 h 17.109 z"
             style="fill:#f9fafb;fill-opacity:1;fill-rule:nonzero;stroke:none"
             id="path104" /></g></g></g></g></svg>
