<?xml version="1.0" encoding="UTF-8" standalone="no"?>
<!-- Created with Inkscape (http://www.inkscape.org/) -->

<svg
   version="1.1"
   id="svg2"
   xml:space="preserve"
   width="839.724"
   height="240.37733"
   viewBox="0 0 839.724 240.37733"
   sodipodi:docname="logo-horizontal-dark.ai"
   xmlns:inkscape="http://www.inkscape.org/namespaces/inkscape"
   xmlns:sodipodi="http://sodipodi.sourceforge.net/DTD/sodipodi-0.dtd"
   xmlns="http://www.w3.org/2000/svg"
   xmlns:svg="http://www.w3.org/2000/svg"><defs
     id="defs6"><clipPath
       clipPathUnits="userSpaceOnUse"
       id="clipPath16"><path
         d="M 0,180.283 H 629.793 V 0 H 0 Z"
         id="path14" /></clipPath><clipPath
       clipPathUnits="userSpaceOnUse"
       id="clipPath24"><path
         d="M 514.861,107.985 H 629.793 V 72.2982 H 514.861 Z"
         id="path22" /></clipPath><clipPath
       clipPathUnits="userSpaceOnUse"
       id="clipPath88"><path
         d="M 0,180.283 H 629.793 V 0 H 0 Z"
         id="path86" /></clipPath><clipPath
       clipPathUnits="userSpaceOnUse"
       id="clipPath116"><path
         d="M 31.267,153.902 H 163.546 V 55.0046 H 31.267 Z"
         id="path114" /></clipPath><clipPath
       clipPathUnits="userSpaceOnUse"
       id="clipPath132"><path
         d="M 6.21065,175.631 H 150.535 V 5.80634 H 6.21065 Z"
         id="path130" /></clipPath><clipPath
       clipPathUnits="userSpaceOnUse"
       id="clipPath148"><path
         d="M 50.4198,121.409 H 178.723 V 6.80717 H 50.4198 Z"
         id="path146" /></clipPath><radialGradient
       fx="0"
       fy="0"
       cx="0"
       cy="0"
       r="1"
       gradientUnits="userSpaceOnUse"
       gradientTransform="matrix(85.351196,0,0,-85.351196,80.275436,90.141602)"
       spreadMethod="pad"
       id="radialGradient178"><stop
         style="stop-opacity:1;stop-color:#2563eb"
         offset="0"
         id="stop170" /><stop
         style="stop-opacity:1;stop-color:#2563eb"
         offset="0.00537634"
         id="stop172" /><stop
         style="stop-opacity:1;stop-color:#2563eb"
         offset="0.473118"
         id="stop174" /><stop
         style="stop-opacity:1;stop-color:#2563eb"
         offset="1"
         id="stop176" /></radialGradient><clipPath
       clipPathUnits="userSpaceOnUse"
       id="clipPath188"><path
         d="M 0,180.283 H 629.793 V 0 H 0 Z"
         id="path186" /></clipPath></defs><sodipodi:namedview
     id="namedview4"
     pagecolor="#ffffff"
     bordercolor="#666666"
     borderopacity="1.0"
     inkscape:pageshadow="2"
     inkscape:pageopacity="0.0"
     inkscape:pagecheckerboard="0" /><g
     id="g8"
     inkscape:groupmode="layer"
     inkscape:label="logo-horizontal-dark"
     transform="matrix(1.3333333,0,0,-1.3333333,0,240.37733)"><g
       id="g10"><g
         id="g12"
         clip-path="url(#clipPath16)"><g
           id="g18"><g
             id="g20" /><g
             id="g76"><g
               clip-path="url(#clipPath24)"
               id="g74"><g
                 transform="translate(525.011,84.2878)"
                 id="g28"><path
                   d="m 0,0 c 1.344,0 2.535,0.308 3.572,0.923 1.036,0.615 1.898,1.501 2.585,2.656 0.686,1.155 1.172,2.538 1.455,4.147 0.278,1.572 0.285,2.96 0.024,4.162 -0.262,1.203 -0.796,2.146 -1.604,2.827 -0.807,0.682 -1.893,1.023 -3.257,1.023 -1.421,0 -2.666,-0.361 -3.734,-1.079 C -2.028,13.939 -2.904,12.973 -3.587,11.76 -4.27,10.548 -4.741,9.204 -5.002,7.726 -5.269,6.211 -5.266,4.874 -4.991,3.714 -4.719,2.554 -4.167,1.646 -3.341,0.987 -2.516,0.329 -1.402,0 0,0 m -2,-11.989 c -1.619,0 -2.976,0.206 -4.067,0.618 -1.092,0.412 -1.966,0.952 -2.62,1.619 -0.654,0.668 -1.141,1.381 -1.462,2.138 l 3.001,1.875 c 0.232,-0.398 0.536,-0.855 0.909,-1.37 0.372,-0.517 0.929,-0.966 1.673,-1.35 0.742,-0.384 1.77,-0.575 3.087,-0.575 1.761,0 3.29,0.426 4.585,1.278 1.297,0.853 2.105,2.188 2.425,4.006 L 6.312,0.682 H 6.029 C 5.713,0.284 5.278,-0.206 4.726,-0.789 4.174,-1.371 3.438,-1.888 2.521,-2.337 1.604,-2.787 0.436,-3.012 -0.985,-3.012 c -1.761,0 -3.267,0.417 -4.518,1.25 -1.249,0.833 -2.139,2.046 -2.668,3.637 -0.529,1.591 -0.593,3.522 -0.192,5.794 0.394,2.236 1.131,4.184 2.21,5.846 1.079,1.662 2.399,2.949 3.962,3.863 1.562,0.914 3.262,1.372 5.099,1.372 1.421,0 2.509,-0.235 3.264,-0.704 0.756,-0.468 1.307,-0.999 1.652,-1.59 C 8.169,15.864 8.431,15.377 8.611,15 h 0.341 l 0.611,3.465 h 3.239 L 8.844,-3.978 C 8.514,-5.853 7.82,-7.38 6.765,-8.559 5.709,-9.737 4.421,-10.604 2.897,-11.158 1.375,-11.712 -0.258,-11.989 -2,-11.989"
                   style="fill:#2563eb;fill-opacity:1;fill-rule:nonzero;stroke:none"
                   id="path26" /></g><g
                 transform="translate(542.3362,93.6052)"
                 id="g32"><path
                   d="m 0,0 c 0.238,1.01 0.657,1.97 1.266,2.87 0.706,1.05 1.607,1.91 2.691,2.56 1.087,0.66 2.295,0.99 3.635,0.99 1.21,0 2.211,-0.28 3.012,-0.84 C 11.396,5.02 11.951,4.26 12.271,3.3 12.591,2.33 12.637,1.23 12.42,0 Z m 15.569,-1.48 c 0.36,2.04 0.391,3.75 0.096,5.14 -0.293,1.4 -0.815,2.52 -1.577,3.36 -0.76,0.85 -1.661,1.47 -2.706,1.84 C 10.35,9.24 9.253,9.43 8.123,9.43 6.152,9.43 4.348,8.95 2.709,7.99 1.06,7.03 -0.316,5.69 -1.437,3.99 -2.558,2.28 -3.317,0.3 -3.71,-1.93 c -0.395,-2.24 -0.329,-4.19 0.194,-5.87 0.523,-1.69 1.463,-2.99 2.818,-3.93 1.355,-0.93 3.085,-1.39 5.184,-1.39 1.481,0 2.851,0.229 4.111,0.68 1.26,0.46 2.376,1.11 3.322,1.94 0.956,0.83 1.695,1.79 2.229,2.89 l -3.08,0.91 C 10.654,-7.46 10.144,-8.09 9.533,-8.601 8.924,-9.11 8.236,-9.49 7.473,-9.74 6.719,-9.99 5.897,-10.11 5.018,-10.11 c -1.361,0 -2.49,0.29 -3.415,0.88 -0.915,0.6 -1.563,1.459 -1.932,2.6 -0.337,1.04 -0.398,2.279 -0.192,3.73 h 15.839 z"
                   style="fill:#2563eb;fill-opacity:1;fill-rule:nonzero;stroke:none"
                   id="path30" /></g><g
                 transform="translate(578.3118,97.8664)"
                 id="g36"><path
                   d="m 0,0 -3.161,-0.853 c -0.101,0.502 -0.292,0.993 -0.571,1.471 -0.282,0.478 -0.705,0.873 -1.276,1.186 -0.57,0.312 -1.343,0.468 -2.317,0.468 -1.336,0 -2.5,-0.304 -3.493,-0.916 -0.994,-0.61 -1.573,-1.384 -1.738,-2.322 -0.147,-0.833 0.04,-1.491 0.561,-1.974 0.52,-0.483 1.396,-0.886 2.628,-1.207 l 3.098,-0.796 c 1.868,-0.474 3.194,-1.196 3.979,-2.166 0.785,-0.971 1.044,-2.218 0.775,-3.743 -0.22,-1.25 -0.776,-2.367 -1.664,-3.352 -0.888,-0.985 -2.021,-1.761 -3.4,-2.33 -1.38,-0.568 -2.916,-0.851 -4.611,-0.851 -2.226,0 -3.983,0.482 -5.27,1.448 -1.288,0.966 -1.963,2.377 -2.023,4.233 l 3.322,0.795 c 0.096,-1.174 0.515,-2.054 1.26,-2.641 0.743,-0.588 1.802,-0.881 3.175,-0.881 1.563,0 2.865,0.334 3.905,1.001 1.042,0.668 1.644,1.471 1.809,2.408 0.134,0.758 -0.018,1.395 -0.458,1.91 -0.439,0.517 -1.185,0.903 -2.239,1.158 l -3.486,0.851 c -1.915,0.474 -3.25,1.21 -4.006,2.209 -0.758,0.999 -1.003,2.252 -0.737,3.758 0.216,1.231 0.756,2.32 1.62,3.267 0.863,0.947 1.945,1.69 3.249,2.23 1.301,0.539 2.72,0.81 4.255,0.81 2.158,0 3.772,-0.474 4.84,-1.421 C -0.904,2.803 -0.246,1.553 0,0"
                   style="fill:#2563eb;fill-opacity:1;fill-rule:nonzero;stroke:none"
                   id="path34" /></g><g
                 transform="translate(589.8313,81.0446)"
                 id="g40"><path
                   d="m 0,0 c -0.244,-0.08 -0.57,-0.17 -0.996,-0.26 -0.426,-0.09 -0.943,-0.13 -1.573,-0.13 -0.95,0 -1.834,0.201 -2.672,0.611 -0.83,0.399 -1.471,1.019 -1.912,1.859 -0.444,0.83 -0.559,1.88 -0.335,3.15 l 2.405,13.641 h -3.29 l 0.501,2.839 h 3.29 l 0.922,5.23 h 3.35 l -0.922,-5.23 h 4.66 L 2.927,18.871 h -4.66 L -3.978,6.141 C -4.146,5.19 -4.13,4.48 -3.932,4.021 -3.734,3.551 -3.431,3.23 -3.018,3.08 c 0.413,-0.16 0.869,-0.239 1.359,-0.239 0.37,0 0.675,0.029 0.922,0.069 0.247,0.04 0.444,0.08 0.588,0.101 z"
                   style="fill:#2563eb;fill-opacity:1;fill-rule:nonzero;stroke:none"
                   id="path38" /></g><g
                 transform="translate(602.8557,83.4919)"
                 id="g44"><path
                   d="m 0,0 c 1.496,0 2.795,0.384 3.896,1.15 1.101,0.768 1.995,1.777 2.678,3.027 0.685,1.25 1.155,2.603 1.413,4.062 0.257,1.458 0.264,2.816 0.023,4.076 -0.242,1.26 -0.778,2.277 -1.607,3.054 -0.829,0.776 -1.991,1.165 -3.487,1.165 -1.496,0 -2.797,-0.389 -3.899,-1.165 C -2.086,14.592 -2.98,13.575 -3.666,12.315 -4.353,11.055 -4.824,9.697 -5.081,8.239 -5.339,6.78 -5.345,5.427 -5.102,4.177 -4.857,2.927 -4.321,1.918 -3.49,1.15 -2.66,0.384 -1.496,0 0,0 m -0.53,-3.011 c -1.97,0 -3.614,0.469 -4.931,1.407 -1.315,0.937 -2.24,2.249 -2.771,3.934 -0.532,1.686 -0.598,3.655 -0.201,5.909 0.401,2.272 1.164,4.256 2.291,5.951 1.128,1.695 2.516,3.012 4.163,3.949 1.648,0.938 3.456,1.406 5.425,1.406 1.97,0 3.614,-0.468 4.93,-1.406 1.317,-0.937 2.239,-2.254 2.77,-3.949 0.53,-1.695 0.594,-3.679 0.194,-5.951 C 10.942,5.985 10.181,4.016 9.055,2.33 7.928,0.645 6.543,-0.667 4.895,-1.604 3.247,-2.542 1.439,-3.011 -0.53,-3.011"
                   style="fill:#2563eb;fill-opacity:1;fill-rule:nonzero;stroke:none"
                   id="path42" /></g><g
                 transform="translate(614.9866,80.9353)"
                 id="g48"><path
                   d="M 0,0 3.847,21.818 H 7.085 L 6.504,18.522 h 0.227 c 0.588,1.08 1.462,1.956 2.623,2.628 1.16,0.673 2.394,1.009 3.701,1.009 0.246,0 0.552,-0.005 0.921,-0.015 0.367,-0.009 0.644,-0.023 0.83,-0.042 l -0.601,-3.409 c -0.109,0.028 -0.359,0.073 -0.751,0.135 -0.391,0.061 -0.809,0.092 -1.255,0.092 -1.06,0 -2.044,-0.22 -2.95,-0.661 C 8.343,17.819 7.583,17.213 6.968,16.441 6.354,15.669 5.96,14.792 5.786,13.806 L 3.353,0 Z"
                   style="fill:#2563eb;fill-opacity:1;fill-rule:nonzero;stroke:none"
                   id="path46" /></g><g
                 transform="translate(525.011,84.2878)"
                 id="g52"><path
                   d="m 0,0 c 1.344,0 2.535,0.308 3.572,0.923 1.036,0.615 1.898,1.501 2.585,2.656 0.686,1.155 1.172,2.538 1.455,4.147 0.278,1.572 0.285,2.96 0.024,4.162 -0.262,1.203 -0.796,2.146 -1.604,2.827 -0.807,0.682 -1.893,1.023 -3.257,1.023 -1.421,0 -2.666,-0.361 -3.734,-1.079 C -2.028,13.939 -2.904,12.973 -3.587,11.76 -4.27,10.548 -4.741,9.204 -5.002,7.726 -5.269,6.211 -5.266,4.874 -4.991,3.714 -4.719,2.554 -4.167,1.646 -3.341,0.987 -2.516,0.329 -1.402,0 0,0 m -2,-11.989 c -1.619,0 -2.976,0.206 -4.067,0.618 -1.092,0.412 -1.966,0.952 -2.62,1.619 -0.654,0.668 -1.141,1.381 -1.462,2.138 l 3.001,1.875 c 0.232,-0.398 0.536,-0.855 0.909,-1.37 0.372,-0.517 0.929,-0.966 1.673,-1.35 0.742,-0.384 1.77,-0.575 3.087,-0.575 1.761,0 3.29,0.426 4.585,1.278 1.297,0.853 2.105,2.188 2.425,4.006 L 6.312,0.682 H 6.029 C 5.713,0.284 5.278,-0.206 4.726,-0.789 4.174,-1.371 3.438,-1.888 2.521,-2.337 1.604,-2.787 0.436,-3.012 -0.985,-3.012 c -1.761,0 -3.267,0.417 -4.518,1.25 -1.249,0.833 -2.139,2.046 -2.668,3.637 -0.529,1.591 -0.593,3.522 -0.192,5.794 0.394,2.236 1.131,4.184 2.21,5.846 1.079,1.662 2.399,2.949 3.962,3.863 1.562,0.914 3.262,1.372 5.099,1.372 1.421,0 2.509,-0.235 3.264,-0.704 0.756,-0.468 1.307,-0.999 1.652,-1.59 C 8.169,15.864 8.431,15.377 8.611,15 h 0.341 l 0.611,3.465 h 3.239 L 8.844,-3.978 C 8.514,-5.853 7.82,-7.38 6.765,-8.559 5.709,-9.737 4.421,-10.604 2.897,-11.158 1.375,-11.712 -0.258,-11.989 -2,-11.989"
                   style="fill:#2563eb;fill-opacity:1;fill-rule:nonzero;stroke:none"
                   id="path50" /></g><g
                 transform="translate(542.3362,93.6052)"
                 id="g56"><path
                   d="m 0,0 c 0.238,1.01 0.657,1.97 1.266,2.87 0.706,1.05 1.607,1.91 2.691,2.56 1.087,0.66 2.295,0.99 3.635,0.99 1.21,0 2.211,-0.28 3.012,-0.84 C 11.396,5.02 11.951,4.26 12.271,3.3 12.591,2.33 12.637,1.23 12.42,0 Z m 15.569,-1.48 c 0.36,2.04 0.391,3.75 0.096,5.14 -0.293,1.4 -0.815,2.52 -1.577,3.36 -0.76,0.85 -1.661,1.47 -2.706,1.84 C 10.35,9.24 9.253,9.43 8.123,9.43 6.152,9.43 4.348,8.95 2.709,7.99 1.06,7.03 -0.316,5.69 -1.437,3.99 -2.558,2.28 -3.317,0.3 -3.71,-1.93 c -0.395,-2.24 -0.329,-4.19 0.194,-5.87 0.523,-1.69 1.463,-2.99 2.818,-3.93 1.355,-0.93 3.085,-1.39 5.184,-1.39 1.481,0 2.851,0.229 4.111,0.68 1.26,0.46 2.376,1.11 3.322,1.94 0.956,0.83 1.695,1.79 2.229,2.89 l -3.08,0.91 C 10.654,-7.46 10.144,-8.09 9.533,-8.601 8.924,-9.11 8.236,-9.49 7.473,-9.74 6.719,-9.99 5.897,-10.11 5.018,-10.11 c -1.361,0 -2.49,0.29 -3.415,0.88 -0.915,0.6 -1.563,1.459 -1.932,2.6 -0.337,1.04 -0.398,2.279 -0.192,3.73 h 15.839 z"
                   style="fill:#2563eb;fill-opacity:1;fill-rule:nonzero;stroke:none"
                   id="path54" /></g><g
                 transform="translate(578.3118,97.8664)"
                 id="g60"><path
                   d="m 0,0 -3.161,-0.853 c -0.101,0.502 -0.292,0.993 -0.571,1.471 -0.282,0.478 -0.705,0.873 -1.276,1.186 -0.57,0.312 -1.343,0.468 -2.317,0.468 -1.336,0 -2.5,-0.304 -3.493,-0.916 -0.994,-0.61 -1.573,-1.384 -1.738,-2.322 -0.147,-0.833 0.04,-1.491 0.561,-1.974 0.52,-0.483 1.396,-0.886 2.628,-1.207 l 3.098,-0.796 c 1.868,-0.474 3.194,-1.196 3.979,-2.166 0.785,-0.971 1.044,-2.218 0.775,-3.743 -0.22,-1.25 -0.776,-2.367 -1.664,-3.352 -0.888,-0.985 -2.021,-1.761 -3.4,-2.33 -1.38,-0.568 -2.916,-0.851 -4.611,-0.851 -2.226,0 -3.983,0.482 -5.27,1.448 -1.288,0.966 -1.963,2.377 -2.023,4.233 l 3.322,0.795 c 0.096,-1.174 0.515,-2.054 1.26,-2.641 0.743,-0.588 1.802,-0.881 3.175,-0.881 1.563,0 2.865,0.334 3.905,1.001 1.042,0.668 1.644,1.471 1.809,2.408 0.134,0.758 -0.018,1.395 -0.458,1.91 -0.439,0.517 -1.185,0.903 -2.239,1.158 l -3.486,0.851 c -1.915,0.474 -3.25,1.21 -4.006,2.209 -0.758,0.999 -1.003,2.252 -0.737,3.758 0.216,1.231 0.756,2.32 1.62,3.267 0.863,0.947 1.945,1.69 3.249,2.23 1.301,0.539 2.72,0.81 4.255,0.81 2.158,0 3.772,-0.474 4.84,-1.421 C -0.904,2.803 -0.246,1.553 0,0"
                   style="fill:#2563eb;fill-opacity:1;fill-rule:nonzero;stroke:none"
                   id="path58" /></g><g
                 transform="translate(589.8313,81.0446)"
                 id="g64"><path
                   d="m 0,0 c -0.244,-0.08 -0.57,-0.17 -0.996,-0.26 -0.426,-0.09 -0.943,-0.13 -1.573,-0.13 -0.95,0 -1.834,0.201 -2.672,0.611 -0.83,0.399 -1.471,1.019 -1.912,1.859 -0.444,0.83 -0.559,1.88 -0.335,3.15 l 2.405,13.641 h -3.29 l 0.501,2.839 h 3.29 l 0.922,5.23 h 3.35 l -0.922,-5.23 h 4.66 L 2.927,18.871 h -4.66 L -3.978,6.141 C -4.146,5.19 -4.13,4.48 -3.932,4.021 -3.734,3.551 -3.431,3.23 -3.018,3.08 c 0.413,-0.16 0.869,-0.239 1.359,-0.239 0.37,0 0.675,0.029 0.922,0.069 0.247,0.04 0.444,0.08 0.588,0.101 z"
                   style="fill:#2563eb;fill-opacity:1;fill-rule:nonzero;stroke:none"
                   id="path62" /></g><g
                 transform="translate(602.8557,83.4919)"
                 id="g68"><path
                   d="m 0,0 c 1.496,0 2.795,0.384 3.896,1.15 1.101,0.768 1.995,1.777 2.678,3.027 0.685,1.25 1.155,2.603 1.413,4.062 0.257,1.458 0.264,2.816 0.023,4.076 -0.242,1.26 -0.778,2.277 -1.607,3.054 -0.829,0.776 -1.991,1.165 -3.487,1.165 -1.496,0 -2.797,-0.389 -3.899,-1.165 C -2.086,14.592 -2.98,13.575 -3.666,12.315 -4.353,11.055 -4.824,9.697 -5.081,8.239 -5.339,6.78 -5.345,5.427 -5.102,4.177 -4.857,2.927 -4.321,1.918 -3.49,1.15 -2.66,0.384 -1.496,0 0,0 m -0.53,-3.011 c -1.97,0 -3.614,0.469 -4.931,1.407 -1.315,0.937 -2.24,2.249 -2.771,3.934 -0.532,1.686 -0.598,3.655 -0.201,5.909 0.401,2.272 1.164,4.256 2.291,5.951 1.128,1.695 2.516,3.012 4.163,3.949 1.648,0.938 3.456,1.406 5.425,1.406 1.97,0 3.614,-0.468 4.93,-1.406 1.317,-0.937 2.239,-2.254 2.77,-3.949 0.53,-1.695 0.594,-3.679 0.194,-5.951 C 10.942,5.985 10.181,4.016 9.055,2.33 7.928,0.645 6.543,-0.667 4.895,-1.604 3.247,-2.542 1.439,-3.011 -0.53,-3.011"
                   style="fill:#2563eb;fill-opacity:1;fill-rule:nonzero;stroke:none"
                   id="path66" /></g><g
                 transform="translate(614.9866,80.9353)"
                 id="g72"><path
                   d="M 0,0 3.847,21.818 H 7.085 L 6.504,18.522 h 0.227 c 0.588,1.08 1.462,1.956 2.623,2.628 1.16,0.673 2.394,1.009 3.701,1.009 0.246,0 0.552,-0.005 0.921,-0.015 0.367,-0.009 0.644,-0.023 0.83,-0.042 l -0.601,-3.409 c -0.109,0.028 -0.359,0.073 -0.751,0.135 -0.391,0.061 -0.809,0.092 -1.255,0.092 -1.06,0 -2.044,-0.22 -2.95,-0.661 C 8.343,17.819 7.583,17.213 6.968,16.441 6.354,15.669 5.96,14.792 5.786,13.806 L 3.353,0 Z"
                   style="fill:#2563eb;fill-opacity:1;fill-rule:nonzero;stroke:none"
                   id="path70" /></g></g></g></g></g></g><g
       id="g78"
       transform="translate(208.1355,61.1413)"><path
         d="M 0,0 V 58 H 2.533 41 V 46 H 16 V 36 H 39 V 23 H 16 V 0 Z"
         style="fill:#111827;fill-opacity:1;fill-rule:nonzero;stroke:none"
         id="path80" /></g><g
       id="g82"><g
         id="g84"
         clip-path="url(#clipPath88)"><g
           id="g90"
           transform="translate(293.9177,90.6233)"><path
             d="m 0,0 c 0,3.484 -0.459,6.425 -1.378,8.821 -0.919,2.396 -2.273,4.214 -4.062,5.454 -1.79,1.241 -3.992,1.862 -6.605,1.862 -2.614,0 -4.816,-0.621 -6.606,-1.862 -1.789,-1.24 -3.144,-3.058 -4.062,-5.454 -0.919,-2.396 -1.378,-5.337 -1.378,-8.821 0,-3.486 0.459,-6.425 1.378,-8.822 0.918,-2.395 2.273,-4.214 4.062,-5.454 1.79,-1.241 3.992,-1.861 6.606,-1.861 2.613,0 4.815,0.62 6.605,1.861 1.789,1.24 3.143,3.059 4.062,5.454 C -0.459,-6.425 0,-3.486 0,0 m 16.25,0 c 0,-6.478 -1.26,-11.937 -3.778,-16.378 -2.52,-4.442 -5.919,-7.803 -10.2,-10.085 -4.28,-2.283 -9.053,-3.424 -14.317,-3.424 -5.304,0 -10.091,1.151 -14.361,3.452 -4.272,2.301 -7.661,5.672 -10.171,10.113 -2.509,4.442 -3.764,9.882 -3.764,16.322 0,6.478 1.255,11.937 3.764,16.378 2.51,4.441 5.899,7.803 10.171,10.085 4.27,2.282 9.057,3.424 14.361,3.424 5.264,0 10.037,-1.142 14.317,-3.424 4.281,-2.282 7.68,-5.644 10.2,-10.085 C 14.99,11.937 16.25,6.478 16.25,0"
             style="fill:#111827;fill-opacity:1;fill-rule:nonzero;stroke:none"
             id="path92" /></g><g
           id="g94"
           transform="translate(333.136,107.1418)"><path
             d="m 0,0 h 5.534 c 1.838,0 3.418,-0.249 4.73,-0.746 1.301,-0.506 2.315,-1.271 3.02,-2.315 0.705,-1.043 1.053,-2.394 1.053,-4.053 0,-1.64 -0.348,-2.961 -1.053,-3.985 -0.705,-1.013 -1.719,-1.749 -3.02,-2.215 C 8.952,-13.771 7.372,-14 5.534,-14 H 0 Z m 20.706,-24.368 c 3.01,1.426 5.373,3.49 7.098,6.152 1.834,2.851 2.761,6.35 2.761,10.507 0,4.117 -0.897,7.646 -2.692,10.587 C 26.079,5.829 23.566,8.082 20.337,9.647 17.106,11.222 13.349,12 9.042,12 H -16 V -46 H 0 v 19 h 5.539 l 10.339,-19 h 16.611 z"
             style="fill:#111827;fill-opacity:1;fill-rule:nonzero;stroke:none"
             id="path96" /></g><g
           id="g98"
           transform="translate(373.136,119.1418)"><path
             d="m 0,0 h 19.933 l 13.13,-32 h 0.663 L 46.857,0 H 67 V -58 H 52 v 34 H 51.548 L 38.664,-57 H 28.244 L 15.448,-24 H 15 V -58 H 0 Z"
             style="fill:#111827;fill-opacity:1;fill-rule:nonzero;stroke:none"
             id="path100" /></g><g
           id="g102"
           transform="translate(471.1809,84.1413)"><path
             d="M 0,0 5.737,19 H 6.183 L 11.919,0 Z M 16.722,35 H -4.802 l -19.15,-58 h 17.119 l 3.318,11 h 18.949 l 3.318,-11 h 17.11 z"
             style="fill:#111827;fill-opacity:1;fill-rule:nonzero;stroke:none"
             id="path104" /></g><g
           id="g106"
           transform="translate(172.654,85.4421)"><path
             d="m 0,0 c 0,-44.409 -35.999,-80.407 -80.408,-80.407 -44.407,0 -80.411,35.998 -80.411,80.407 0,44.405 36.004,80.406 80.411,80.406 C -35.999,80.406 0,44.405 0,0"
             style="fill:#f3f4f6;fill-opacity:1;fill-rule:nonzero;stroke:none"
             id="path108" /></g><g
           id="g110"><g
             id="g112" /><g
             id="g124"><g
               clip-path="url(#clipPath116)"
               id="g122"><g
                 transform="translate(163.5461,104.4543)"
                 id="g120"><path
                   d="m 0,0 c 0,-27.31 -29.612,-49.45 -66.14,-49.45 -36.526,0 -66.139,22.14 -66.139,49.45 0,27.307 29.613,49.448 66.139,49.448 C -29.612,49.448 0,27.307 0,0"
                   style="fill:#ffffff;fill-opacity:1;fill-rule:nonzero;stroke:none"
                   id="path118" /></g></g></g></g><g
           id="g126"><g
             id="g128" /><g
             id="g140"><g
               clip-path="url(#clipPath132)"
               opacity="0.300003"
               id="g138"><g
                 transform="translate(34.7971,125.3005)"
                 id="g136"><path
                   d="m 0,0 c 22.587,22.354 83.383,18.791 112.807,12.89 l 2.931,2.6 C 98.306,32.867 81.613,51.144 56.579,50.303 22.239,49.2 -10.07,29.035 -23.372,-2.411 -45.718,-55.19 8.595,-118.762 47.97,-119.494 13.284,-100.875 -30.049,-29.742 0,0"
                   style="fill:#6b7280;fill-opacity:1;fill-rule:nonzero;stroke:none"
                   id="path134" /></g></g></g></g><g
           id="g142"><g
             id="g144" /><g
             id="g156"><g
               clip-path="url(#clipPath148)"
               opacity="0.300003"
               id="g154"><g
                 transform="translate(171.8855,101.0363)"
                 id="g152"><path
                   d="m 0,0 c -11.686,11.437 -45.28,19.524 -73.635,20.282 -15.262,0.444 -41.83,-0.063 -47.258,-17.88 -0.884,-2.986 -0.811,-6.093 0.69,-8.921 -0.016,0.026 -0.037,0.047 -0.051,0.076 2.874,-5.624 3.896,-9.29 10.921,-10.994 18.647,-4.677 52.813,13.835 69.998,1.262 9.16,-6.668 7.019,-20.826 -2.818,-23.016 -5.447,-1.215 -15.873,1.037 -21.326,2.264 -25.137,5.657 -46.763,3.842 -41.868,-18.45 3.394,-15.446 17.982,-31.314 32.607,-36.681 11.178,-4.17 18.456,-1.832 28.995,2.778 29.888,13.206 49.746,41.829 50.578,73.927 C 6.959,-9.603 4.599,-4.422 0,0"
                   style="fill:#6b7280;fill-opacity:1;fill-rule:nonzero;stroke:none"
                   id="path150" /></g></g></g></g></g></g><g
       id="g158"><g
         id="g160"><g
           id="g166"><g
             id="g168"><path
               d="M 91.262,180.228 C 55.066,179.063 21.008,157.811 6.984,124.658 v 0 C -16.568,69.03 22.046,6.351 83.871,0 V 0 L 82.766,5.81 C 42.704,20.435 0.906,96.091 31.441,128.561 v 0 c 23.974,25.555 88.076,18.447 119.092,12.229 v 0 l 10.018,12.095 c -17.612,17.562 -40.873,27.399 -66.019,27.398 v 0 c -1.086,0 -2.178,-0.018 -3.27,-0.055"
               style="fill:url(#radialGradient178);stroke:none"
               id="path180" /></g></g></g></g><g
       id="g182"><g
         id="g184"
         clip-path="url(#clipPath188)"><g
           id="g190"
           transform="translate(49.4045,97.2483)"><path
             d="m 0,0 c -1.573,3.042 -1.64,6.367 -0.69,9.572 5.869,19.278 34.607,19.827 51.117,19.345 30.675,-0.824 67.004,-9.572 79.648,-21.942 4.979,-4.778 7.531,-10.388 7.391,-16.606 -0.898,-34.719 -22.38,-65.683 -54.709,-79.959 -11.398,-4.994 -17.586,-6.419 -26.564,-3.013 -15.761,5.98 -34.756,23.759 -37.368,40.67 -3.502,22.653 22.038,20.523 47.555,17.141 2.849,-0.378 5.672,-0.926 8.528,-1.248 1.426,-0.161 2.861,-0.263 4.297,-0.254 1.149,0.006 2.33,0.036 3.471,0.254 1.196,0.229 2.29,0.754 3.337,1.36 0.795,0.459 1.55,0.986 2.253,1.576 1.352,1.136 2.509,2.502 3.397,4.029 0.86,1.48 1.466,3.108 1.763,4.794 0.294,1.677 0.28,3.406 -0.064,5.075 -0.359,1.744 -1.075,3.404 -2.08,4.873 -1.013,1.481 -2.305,2.757 -3.754,3.811 C 68.94,3.08 31.981,-16.94 11.813,-11.887 4.422,-10.091 3.176,-6.292 0.252,-0.49"
             style="fill:#2563eb;fill-opacity:1;fill-rule:nonzero;stroke:none"
             id="path192" /></g></g></g></g></svg>
