<?xml version="1.0" encoding="UTF-8" standalone="no"?>
<!-- Created with Inkscape (http://www.inkscape.org/) -->

<svg
   version="1.1"
   id="svg2"
   xml:space="preserve"
   width="335.79868"
   height="323.952"
   viewBox="0 0 335.79868 323.952"
   sodipodi:docname="favicon.ai"
   xmlns:inkscape="http://www.inkscape.org/namespaces/inkscape"
   xmlns:sodipodi="http://sodipodi.sourceforge.net/DTD/sodipodi-0.dtd"
   xmlns="http://www.w3.org/2000/svg"
   xmlns:svg="http://www.w3.org/2000/svg"><defs
     id="defs6"><clipPath
       clipPathUnits="userSpaceOnUse"
       id="clipPath16"><path
         d="M 0,242.964 H 251.849 V 0 H 0 Z"
         id="path14" /></clipPath><clipPath
       clipPathUnits="userSpaceOnUse"
       id="clipPath28"><path
         d="M 42.1379,207.411 H 220.408 V 74.1287 H 42.1379 Z"
         id="path26" /></clipPath><clipPath
       clipPathUnits="userSpaceOnUse"
       id="clipPath44"><path
         d="M 8.36998,236.695 H 202.874 V 7.8251 H 8.36998 Z"
         id="path42" /></clipPath><clipPath
       clipPathUnits="userSpaceOnUse"
       id="clipPath60"><path
         d="M 67.9499,163.621 H 240.862 V 9.1739 H 67.9499 Z"
         id="path58" /></clipPath><radialGradient
       fx="0"
       fy="0"
       cx="0"
       cy="0"
       r="1"
       gradientUnits="userSpaceOnUse"
       gradientTransform="matrix(115.02627,0,0,-115.02627,108.18576,121.48221)"
       spreadMethod="pad"
       id="radialGradient90"><stop
         style="stop-opacity:1;stop-color:#2563eb"
         offset="0"
         id="stop82" /><stop
         style="stop-opacity:1;stop-color:#2563eb"
         offset="0.00537634"
         id="stop84" /><stop
         style="stop-opacity:1;stop-color:#2563eb"
         offset="0.473118"
         id="stop86" /><stop
         style="stop-opacity:1;stop-color:#2563eb"
         offset="1"
         id="stop88" /></radialGradient><clipPath
       clipPathUnits="userSpaceOnUse"
       id="clipPath100"><path
         d="M 0,242.964 H 251.849 V 0 H 0 Z"
         id="path98" /></clipPath></defs><sodipodi:namedview
     id="namedview4"
     pagecolor="#ffffff"
     bordercolor="#666666"
     borderopacity="1.0"
     inkscape:pageshadow="2"
     inkscape:pageopacity="0.0"
     inkscape:pagecheckerboard="0" /><g
     id="g8"
     inkscape:groupmode="layer"
     inkscape:label="favicon"
     transform="matrix(1.3333333,0,0,-1.3333333,0,323.952)"><g
       id="g10"><g
         id="g12"
         clip-path="url(#clipPath16)"><g
           id="g18"
           transform="translate(232.6826,115.1489)"><path
             d="m 0,0 c 0,-59.85 -48.514,-108.363 -108.364,-108.363 -59.847,0 -108.369,48.513 -108.369,108.363 0,59.844 48.522,108.362 108.369,108.362 C -48.514,108.362 0,59.844 0,0"
             style="fill:#f3f4f6;fill-opacity:1;fill-rule:nonzero;stroke:none"
             id="path20" /></g><g
           id="g22"><g
             id="g24" /><g
             id="g36"><g
               clip-path="url(#clipPath28)"
               id="g34"><g
                 transform="translate(220.4082,140.7715)"
                 id="g32"><path
                   d="m 0,0 c 0,-36.805 -39.907,-66.643 -89.136,-66.643 -49.224,0 -89.134,29.838 -89.134,66.643 0,36.801 39.91,66.64 89.134,66.64 C -39.907,66.64 0,36.801 0,0"
                   style="fill:#ffffff;fill-opacity:1;fill-rule:nonzero;stroke:none"
                   id="path30" /></g></g></g></g><g
           id="g38"><g
             id="g40" /><g
             id="g52"><g
               clip-path="url(#clipPath44)"
               opacity="0.300003"
               id="g50"><g
                 transform="translate(46.8955,168.8647)"
                 id="g48"><path
                   d="m 0,0 c 30.441,30.127 112.374,25.324 152.027,17.372 l 3.952,3.504 C 132.485,44.294 109.989,68.926 76.25,67.793 29.971,66.307 -13.571,39.13 -31.499,-3.249 -61.614,-74.379 11.583,-160.053 64.648,-161.04 17.903,-135.947 -40.497,-40.082 0,0"
                   style="fill:#6b7280;fill-opacity:1;fill-rule:nonzero;stroke:none"
                   id="path46" /></g></g></g></g><g
           id="g54"><g
             id="g56" /><g
             id="g68"><g
               clip-path="url(#clipPath60)"
               opacity="0.300003"
               id="g66"><g
                 transform="translate(231.6474,136.165)"
                 id="g64"><path
                   d="m 0,0 c -15.749,15.413 -61.023,26.312 -99.236,27.333 -20.57,0.599 -56.374,-0.084 -63.69,-24.096 -1.192,-4.024 -1.093,-8.212 0.929,-12.022 -0.021,0.034 -0.048,0.063 -0.068,0.101 3.874,-7.579 5.25,-12.52 14.718,-14.816 25.131,-6.302 71.176,18.646 94.334,1.701 12.346,-8.987 9.46,-28.068 -3.797,-31.019 -7.34,-1.637 -21.391,1.399 -28.74,3.052 -33.876,7.623 -63.021,5.177 -56.425,-24.865 4.574,-20.816 24.234,-42.201 43.944,-49.434 15.064,-5.62 24.873,-2.47 39.076,3.745 40.279,17.796 67.043,56.371 68.163,99.629 C 9.379,-12.942 6.197,-5.96 0,0"
                   style="fill:#6b7280;fill-opacity:1;fill-rule:nonzero;stroke:none"
                   id="path62" /></g></g></g></g></g></g><g
       id="g70"><g
         id="g72"><g
           id="g78"><g
             id="g80"><path
               d="m 127.033,242.964 c -1.343,-0.004 -2.691,-0.028 -4.042,-0.074 v 0 C 74.211,241.32 28.311,212.68 9.411,168 v 0 C 3.026,152.918 0.031,137.458 0,122.302 v 0 -0.484 C 0.125,61.824 46.651,6.82 113.032,0.001 v 0 l -1.49,7.829 C 57.551,27.541 1.221,129.5 42.372,173.26 v 0 c 32.31,34.44 118.699,24.86 160.499,16.48 v 0 l 13.5,16.3 c -23.646,23.58 -54.856,36.825 -88.598,36.924 v 0 z"
               style="fill:url(#radialGradient90);stroke:none"
               id="path92" /></g></g></g></g><g
       id="g94"><g
         id="g96"
         clip-path="url(#clipPath100)"><g
           id="g102"
           transform="translate(66.5815,131.0601)"><path
             d="m 0,0 c -2.12,4.1 -2.21,8.58 -0.93,12.9 7.91,25.98 46.64,26.72 68.89,26.07 41.34,-1.11 90.3,-12.9 107.34,-29.57 6.71,-6.44 10.15,-14 9.96,-22.38 -1.21,-46.79 -30.16,-88.52 -73.73,-107.76 -15.36,-6.73 -23.7,-8.65 -35.8,-4.06 -21.24,8.06 -46.84,32.02 -50.36,54.81 -4.72,30.53 29.7,27.66 64.09,23.1 3.838,-0.509 7.644,-1.248 11.493,-1.68 1.922,-0.217 3.855,-0.356 5.791,-0.344 1.548,0.01 3.139,0.049 4.677,0.344 1.612,0.308 3.086,1.016 4.497,1.832 1.072,0.618 2.088,1.329 3.036,2.124 1.823,1.531 3.382,3.373 4.579,5.43 1.159,1.995 1.975,4.188 2.375,6.461 0.397,2.26 0.378,4.59 -0.085,6.839 -0.484,2.351 -1.45,4.587 -2.804,6.567 -1.365,1.996 -3.106,3.716 -5.059,5.137 C 92.91,4.15 43.1,-22.83 15.92,-16.02 5.96,-13.6 4.28,-8.48 0.34,-0.66"
             style="fill:#2563eb;fill-opacity:1;fill-rule:nonzero;stroke:none"
             id="path104" /></g></g></g></g></svg>
