<svg xmlns="http://www.w3.org/2000/svg" width="155" height="51.993" viewBox="0 0 155 51.993">
  <g id="Grupo_1058" data-name="Grupo 1058" transform="translate(-296 -5048)">
    <g id="Logo_Limber" data-name="Logo Limber" transform="translate(296 5048)">
      <path id="Caminho_93" data-name="Caminho 93" d="M356.785,362.558a.356.356,0,0,1-.044.2c-.029.042-.094.063-.195.063h-3.491a2.6,2.6,0,0,1-1.023-.176,1.744,1.744,0,0,1-.653-.464,1.683,1.683,0,0,1-.345-.678,3.3,3.3,0,0,1-.1-.829v-4.5a2.974,2.974,0,0,1,.113-.822,1.779,1.779,0,0,1,.37-.691,1.83,1.83,0,0,1,.659-.471,2.436,2.436,0,0,1,.979-.176h3.428a.212.212,0,0,1,.182.063.358.358,0,0,1,.044.2v.527a.326.326,0,0,1-.044.195.225.225,0,0,1-.182.057h-3.415a1.044,1.044,0,0,0-.76.232.984.984,0,0,0-.232.722v1.632h3.993a.211.211,0,0,1,.182.063.354.354,0,0,1,.044.2v.477a.328.328,0,0,1-.044.188.211.211,0,0,1-.182.063h-3.993v2.185a1,1,0,0,0,.226.684.976.976,0,0,0,.766.257h3.478c.1,0,.165.021.195.063a.357.357,0,0,1,.044.2Zm-12.242-6.027a1.8,1.8,0,0,0-.075-.508,1.228,1.228,0,0,0-.263-.471,1.361,1.361,0,0,0-.5-.345,2.057,2.057,0,0,0-.791-.132h-2.185v2.964h2.1a2.276,2.276,0,0,0,.779-.119,1.441,1.441,0,0,0,.534-.327,1.321,1.321,0,0,0,.308-.477A1.668,1.668,0,0,0,344.543,356.531Zm-5.01-1.884a.717.717,0,0,1,.138-.483.649.649,0,0,1,.5-.157h2.875a3.067,3.067,0,0,1,1.086.182,2.463,2.463,0,0,1,.835.515,2.272,2.272,0,0,1,.54.785,2.558,2.558,0,0,1,.188.992,2.351,2.351,0,0,1-.377,1.325,2.1,2.1,0,0,1-1.042.822v.05a1.38,1.38,0,0,1,.741.483,2.46,2.46,0,0,1,.352.785l.728,2.649a.239.239,0,0,1,.006.144q-.019.082-.157.081h-.829a.382.382,0,0,1-.132-.025.171.171,0,0,1-.094-.138l-.665-2.4a2.007,2.007,0,0,0-.264-.6,1.3,1.3,0,0,0-.383-.377,1.391,1.391,0,0,0-.49-.189,3.207,3.207,0,0,0-.584-.05h-1.8v3.566c0,.092-.017.151-.05.176a.333.333,0,0,1-.188.038h-.7a.336.336,0,0,1-.182-.038c-.038-.025-.057-.084-.057-.176Zm-7.759,2.5-.59-1.846h-.063l-.565,1.783-.854,2.687h2.913Zm2.1,5.676a.541.541,0,0,1-.182-.025c-.046-.017-.086-.071-.119-.163l-.628-1.846H329.4l-.628,1.846a.254.254,0,0,1-.264.188h-.854q-.126,0-.157-.069a.253.253,0,0,1-.006-.169l2.838-8.074a.818.818,0,0,1,.226-.4.757.757,0,0,1,.414-.107h.377a.681.681,0,0,1,.458.113,1.02,1.02,0,0,1,.22.389l2.825,8.074a.2.2,0,0,1,.007.163c-.021.05-.073.075-.157.075Zm-14.98-7.5-.414,1.934-1.143,5.01a1.05,1.05,0,0,1-.182.4.444.444,0,0,1-.371.15h-.54a.86.86,0,0,1-.421-.088.534.534,0,0,1-.22-.377l-1.72-8.174c-.034-.109,0-.163.1-.163h.891q.189,0,.214.151l.992,5.249.364,2.034h.075l.439-2.034,1.08-4.847a.928.928,0,0,1,.182-.389.6.6,0,0,1,.483-.163h.49a.512.512,0,0,1,.414.151,1,1,0,0,1,.188.4l1.055,4.8.439,2.085h.063l.4-2.1.992-5.186a.193.193,0,0,1,.213-.151h.867q.151,0,.1.163l-1.733,8.174a.534.534,0,0,1-.22.377.86.86,0,0,1-.421.088h-.54a.452.452,0,0,1-.37-.144,1,1,0,0,1-.182-.408l-1.13-5.023-.4-1.921Zm-12.807-.276h-2.448c-.076,0-.124-.015-.145-.044a.286.286,0,0,1-.031-.157v-.615a.291.291,0,0,1,.031-.151c.021-.033.069-.05.145-.05h6.152c.076,0,.124.017.145.05a.29.29,0,0,1,.031.151v.615a.286.286,0,0,1-.031.157c-.021.029-.069.044-.145.044h-2.524v7.559c0,.092-.017.151-.05.176a.3.3,0,0,1-.176.038h-.716a.335.335,0,0,1-.182-.038c-.038-.025-.057-.084-.057-.176Zm-11.413,7.534c0,.1-.019.165-.057.194a.326.326,0,0,1-.195.044h-.628a.357.357,0,0,1-.2-.044c-.042-.029-.063-.094-.063-.194v-6.4a3.15,3.15,0,0,1,.106-.822,1.805,1.805,0,0,1,.352-.691,1.707,1.707,0,0,1,.653-.471,2.557,2.557,0,0,1,1.011-.176H299.1c.1,0,.165.021.195.063a.358.358,0,0,1,.044.2v.515a.355.355,0,0,1-.044.207.246.246,0,0,1-.195.057h-3.441a1.064,1.064,0,0,0-.76.226.962.962,0,0,0-.232.716v1.758h3.968a.224.224,0,0,1,.182.057.323.323,0,0,1,.044.195v.489a.36.36,0,0,1-.044.195.2.2,0,0,1-.182.069H294.67Zm-7.5-4.144a8,8,0,0,0-.106-1.325,3.345,3.345,0,0,0-.389-1.124,2.117,2.117,0,0,0-.773-.779,2.442,2.442,0,0,0-1.256-.289,2.255,2.255,0,0,0-1.978,1.03,3.479,3.479,0,0,0-.477,1.1,5.47,5.47,0,0,0-.157,1.331,7.5,7.5,0,0,0,.125,1.425,3.256,3.256,0,0,0,.421,1.117,2.066,2.066,0,0,0,.785.735,2.576,2.576,0,0,0,1.231.264,2.4,2.4,0,0,0,1.224-.288,2.257,2.257,0,0,0,.8-.779,3.377,3.377,0,0,0,.427-1.118A6.645,6.645,0,0,0,287.174,358.439Zm1.18-.05a5.3,5.3,0,0,1-.948,3.39,3.4,3.4,0,0,1-2.819,1.18,3.328,3.328,0,0,1-2.781-1.168,5.3,5.3,0,0,1-.923-3.352,6.131,6.131,0,0,1,.282-1.94,4.2,4.2,0,0,1,.779-1.425,3.281,3.281,0,0,1,1.18-.879,3.651,3.651,0,0,1,1.488-.3,4.007,4.007,0,0,1,1.62.308,3.062,3.062,0,0,1,1.174.892,3.964,3.964,0,0,1,.709,1.413A6.813,6.813,0,0,1,288.355,358.389ZM276.3,360.473a2.365,2.365,0,0,1-.238,1.092,2.258,2.258,0,0,1-.653.779,2.793,2.793,0,0,1-.979.465,4.729,4.729,0,0,1-1.218.15q-.365,0-.766-.031a8.032,8.032,0,0,1-.816-.107,7.048,7.048,0,0,1-.822-.2,5.1,5.1,0,0,1-.785-.314q-.138-.075-.05-.251l.3-.666a.134.134,0,0,1,.2-.075,7.287,7.287,0,0,0,1.35.446,5.834,5.834,0,0,0,1.275.157,2.651,2.651,0,0,0,1.488-.358,1.171,1.171,0,0,0,.534-1.036,1.188,1.188,0,0,0-.132-.571,1.493,1.493,0,0,0-.389-.452,3.168,3.168,0,0,0-.647-.389q-.389-.182-.9-.37-.691-.251-1.212-.5a4,4,0,0,1-.867-.546,2.034,2.034,0,0,1-.521-.659,1.913,1.913,0,0,1-.176-.841,2.136,2.136,0,0,1,.716-1.67,3.03,3.03,0,0,1,2.084-.64A7.864,7.864,0,0,1,274.4,354a5.589,5.589,0,0,1,1.3.383.155.155,0,0,1,.088.214l-.276.7c-.025.059-.048.092-.069.1a.135.135,0,0,1-.094-.013,6.632,6.632,0,0,0-1.224-.358,6.053,6.053,0,0,0-1.086-.107,1.821,1.821,0,0,0-1.168.333,1.041,1.041,0,0,0-.415.847,1.014,1.014,0,0,0,.138.54,1.431,1.431,0,0,0,.406.415,3.863,3.863,0,0,0,.683.364q.414.176.977.4c.351.134.684.274,1,.421a3.815,3.815,0,0,1,.839.521,2.349,2.349,0,0,1,.582.716A2.093,2.093,0,0,1,276.3,360.473Z" transform="translate(-237.862 -310.966)" fill="#e23a01"/>
      <path id="Caminho_94" data-name="Caminho 94" d="M434.839,229.76a9.672,9.672,0,0,0-3.089-2.079,9.992,9.992,0,0,0-3.881-.746h-7.059a1.952,1.952,0,0,0-1.68.729,2.613,2.613,0,0,0,0,3.313,1.94,1.94,0,0,0,1.68.727h7.059a4.581,4.581,0,0,1,3.484,1.431,6.057,6.057,0,0,1,0,7.885c-1.375,1.384-2.052,1.3-3.688,1.3h-7.054a8.983,8.983,0,0,1-2.715-.187,4.713,4.713,0,0,1-1.642-1.115,5.034,5.034,0,0,1-1.39-3.651V213.8l-.011-.282a2.173,2.173,0,0,0-.717-1.674,2.4,2.4,0,0,0-1.624-.624h-.057c-.059,0-.119-.007-.18-.007a2.458,2.458,0,0,0-1.63.629,2.264,2.264,0,0,0-.715,1.86l.01,17.754v5.978a9.737,9.737,0,0,0,2.879,6.935,10.15,10.15,0,0,0,3.1,2.039,9.616,9.616,0,0,0,3.688.749h7.8a9.5,9.5,0,0,0,4.344-.749,9.9,9.9,0,0,0,3.089-2.073,9.691,9.691,0,0,0,2.076-3.1,11.783,11.783,0,0,0,0-8.355,9.417,9.417,0,0,0-2.076-3.124" transform="translate(-335.745 -211.214)" fill="#481c4c"/>
      <path id="Caminho_95" data-name="Caminho 95" d="M535.891,266.362A9.416,9.416,0,0,0,533,264.3a8.6,8.6,0,0,0-3.491-.73h-9.536a8.585,8.585,0,0,0-3.5.73,9.418,9.418,0,0,0-2.894,2.058,9.764,9.764,0,0,0-1.959,3.139,12.629,12.629,0,0,0-.006,8.443,9.106,9.106,0,0,0,8.358,5.825h9.464a8.334,8.334,0,0,0,3.5-.732,9.354,9.354,0,0,0,2.894-2.058,9.691,9.691,0,0,0,1.411-1.9h-8.137c-3.044,0-6.089-.026-9.133-.026a4.44,4.44,0,0,1-3.258-1.385c-2.05-1.974-1.876-5.8-.012-7.825a4.259,4.259,0,0,1,3.27-1.542h9.464c1.873,0,3.533,1.967,4.023,3.665H520.63a1.973,1.973,0,0,0-1.687.686,2.677,2.677,0,0,0,0,3.246,1.98,1.98,0,0,0,1.687.684h17.606c.82-3.451.084-7.621-2.345-10.216" transform="translate(-406.336 -247.824)" fill="#481c4c"/>
      <path id="Caminho_96" data-name="Caminho 96" d="M631.135,264.271a2.208,2.208,0,0,0-1.817-.7h-8.072a9.113,9.113,0,0,0-3.71.769,10.149,10.149,0,0,0-5.183,5.184,9.134,9.134,0,0,0-.777,3.712v8.105a2.223,2.223,0,0,0,.709,1.82,2.411,2.411,0,0,0,3.2,0,2.241,2.241,0,0,0,.7-1.82v-8.105a5.248,5.248,0,0,1,5.065-5.068h8.072a2.223,2.223,0,0,0,1.817-.7,2.514,2.514,0,0,0,.6-1.269v-.662a2.528,2.528,0,0,0-.6-1.272" transform="translate(-476.732 -247.824)" fill="#481c4c"/>
      <path id="Caminho_97" data-name="Caminho 97" d="M236.828,263.574a2.459,2.459,0,0,0-1.65.636,2.309,2.309,0,0,0-.73,1.874v15.384a2.031,2.031,0,0,0,.705,1.736,2.755,2.755,0,0,0,3.341,0,2.038,2.038,0,0,0,.7-1.736V266.085a2.281,2.281,0,0,0-.726-1.874,2.455,2.455,0,0,0-1.645-.636" transform="translate(-213.048 -247.824)" fill="#481c4c"/>
      <path id="Caminho_98" data-name="Caminho 98" d="M271.023,263.574h-1.988a9.658,9.658,0,0,0-3.881.775,9.408,9.408,0,0,0-3.1,2.131,9.889,9.889,0,0,0-2.808,6.879v8.1a1.976,1.976,0,0,0,.693,1.692,2.587,2.587,0,0,0,1.641.569,2.619,2.619,0,0,0,1.638-.569,1.979,1.979,0,0,0,.693-1.692v-8.1a4.466,4.466,0,0,1,1.038-2.892,4.23,4.23,0,0,1,3.687-1.86H273.1a5.041,5.041,0,0,1,3.492,1.356,4.409,4.409,0,0,1,1.541,3.4v7.867a2.3,2.3,0,0,0,.738,1.895,2.471,2.471,0,0,0,3.339,0,2.294,2.294,0,0,0,.727-1.895v-7.867a4.541,4.541,0,0,1,1.009-2.886,5.389,5.389,0,0,1,2.079-1.646,2.8,2.8,0,0,1,1.423-.239h4.711a5.269,5.269,0,0,1,3.552,1.367,4.395,4.395,0,0,1,1.579,3.4v8.136a1.943,1.943,0,0,0,.708,1.657,2.55,2.55,0,0,0,1.625.569,2.578,2.578,0,0,0,1.638-.569,1.924,1.924,0,0,0,.693-1.657v-8.136a9.367,9.367,0,0,0-.773-3.728,10.045,10.045,0,0,0-2.126-3.151,9.908,9.908,0,0,0-3.153-2.131,9.282,9.282,0,0,0-3.743-.775H288a8.644,8.644,0,0,0-3.974.909,12.259,12.259,0,0,0-3.2,2.273l-.29.291-.293-.291a11.9,11.9,0,0,0-3.2-2.273,8.611,8.611,0,0,0-3.968-.909Z" transform="translate(-230.385 -247.824)" fill="#481c4c"/>
      <path id="Caminho_99" data-name="Caminho 99" d="M169.509,240.948A4.786,4.786,0,0,1,168,237.436v-21.67h0V213.7a2.278,2.278,0,0,0-.715-1.86,2.485,2.485,0,0,0-1.635-.629,2.458,2.458,0,0,0-1.63.629,2.264,2.264,0,0,0-.716,1.86l.011,17.754v5.978a9.738,9.738,0,0,0,2.879,6.935,10.147,10.147,0,0,0,3.1,2.039,9.619,9.619,0,0,0,3.728.749h6.719a2.068,2.068,0,0,0,1.768-.718,2.807,2.807,0,0,0,0-3.4,2.075,2.075,0,0,0-1.768-.717h-5.757c-1.968,0-2.938.186-4.474-1.374" transform="translate(-163.303 -211.214)" fill="#481c4c"/>
      <path id="Caminho_100" data-name="Caminho 100" d="M236.958,240.369a2.4,2.4,0,1,1-2.4,2.4,2.4,2.4,0,0,1,2.4-2.4" transform="translate(-213.122 -231.599)" fill="#481c4c"/>
    </g>
  </g>
</svg>
