<svg xmlns="http://www.w3.org/2000/svg" width="111.479" height="37.395" viewBox="0 0 111.479 37.395"><defs><style>.a{fill:#e23a01;}.b,.c{fill:#fff;}.c{fill-rule:evenodd;}</style></defs><g transform="translate(55.739 18.697)"><g transform="translate(-55.739 -18.697)"><path class="a" d="M169.1,148.907a.258.258,0,0,1-.032.145c-.021.03-.068.045-.14.045h-2.511a1.866,1.866,0,0,1-.736-.126,1.252,1.252,0,0,1-.469-.334,1.206,1.206,0,0,1-.248-.488,2.375,2.375,0,0,1-.072-.6V144.32a2.149,2.149,0,0,1,.081-.592,1.28,1.28,0,0,1,.267-.5,1.32,1.32,0,0,1,.474-.339,1.757,1.757,0,0,1,.7-.126h2.465a.152.152,0,0,1,.131.045.256.256,0,0,1,.032.145v.379a.233.233,0,0,1-.032.14.161.161,0,0,1-.131.04h-2.456a.751.751,0,0,0-.546.167.707.707,0,0,0-.167.519v1.174h2.872a.152.152,0,0,1,.131.045.255.255,0,0,1,.032.144v.343a.236.236,0,0,1-.032.135.152.152,0,0,1-.131.045H165.71v1.571a.719.719,0,0,0,.163.492.7.7,0,0,0,.551.185h2.5c.072,0,.119.015.14.045a.258.258,0,0,1,.032.145Zm-8.8-4.335a1.306,1.306,0,0,0-.054-.366.88.88,0,0,0-.19-.339.975.975,0,0,0-.361-.248,1.477,1.477,0,0,0-.569-.095h-1.572v2.131h1.508a1.632,1.632,0,0,0,.56-.086,1.035,1.035,0,0,0,.384-.235.947.947,0,0,0,.221-.343A1.194,1.194,0,0,0,160.292,144.573Zm-3.6-1.355a.516.516,0,0,1,.1-.348.467.467,0,0,1,.361-.113h2.068a2.2,2.2,0,0,1,.781.131,1.772,1.772,0,0,1,.6.37,1.63,1.63,0,0,1,.388.564,1.834,1.834,0,0,1,.135.714,1.691,1.691,0,0,1-.271.953,1.512,1.512,0,0,1-.749.591v.036a.99.99,0,0,1,.533.348,1.764,1.764,0,0,1,.253.564l.524,1.906a.172.172,0,0,1,0,.1c-.009.039-.047.059-.113.059h-.6a.28.28,0,0,1-.095-.018.123.123,0,0,1-.068-.1l-.479-1.725a1.446,1.446,0,0,0-.19-.434.942.942,0,0,0-.275-.271,1,1,0,0,0-.352-.136,2.3,2.3,0,0,0-.42-.036h-1.291v2.565q0,.1-.036.126a.241.241,0,0,1-.136.027h-.506a.244.244,0,0,1-.131-.027q-.041-.027-.04-.126Zm-5.581,1.8-.424-1.327h-.045l-.407,1.282-.614,1.933h2.1Zm1.508,4.082a.4.4,0,0,1-.131-.018q-.05-.018-.086-.117l-.452-1.328H149.4l-.452,1.328a.183.183,0,0,1-.19.135h-.614c-.06,0-.1-.017-.113-.05a.185.185,0,0,1,0-.122l2.041-5.807a.592.592,0,0,1,.163-.285.544.544,0,0,1,.3-.077h.271a.49.49,0,0,1,.329.081.735.735,0,0,1,.158.28l2.032,5.807a.146.146,0,0,1,0,.117c-.015.036-.053.054-.113.054Zm-10.774-5.392-.3,1.391-.822,3.6a.759.759,0,0,1-.131.289.32.32,0,0,1-.267.108h-.388a.618.618,0,0,1-.3-.063.384.384,0,0,1-.158-.271l-1.237-5.879q-.036-.117.072-.117h.641q.135,0,.153.108l.714,3.775.262,1.463h.054l.316-1.463.777-3.486a.665.665,0,0,1,.131-.28.427.427,0,0,1,.348-.117h.352a.367.367,0,0,1,.3.108.715.715,0,0,1,.136.289l.759,3.45.316,1.5h.045l.289-1.508.714-3.73a.139.139,0,0,1,.153-.108h.623c.072,0,.1.039.072.117l-1.246,5.879a.384.384,0,0,1-.158.271.619.619,0,0,1-.3.063h-.388a.326.326,0,0,1-.266-.1.717.717,0,0,1-.131-.294l-.813-3.612-.289-1.382Zm-9.211-.2H130.87q-.081,0-.1-.032a.2.2,0,0,1-.023-.113v-.442a.206.206,0,0,1,.023-.108q.023-.036.1-.036H135.3q.081,0,.1.036a.206.206,0,0,1,.023.108v.442a.2.2,0,0,1-.023.113q-.022.031-.1.032H133.48v5.437q0,.1-.036.126a.219.219,0,0,1-.126.027H132.8a.244.244,0,0,1-.131-.027c-.027-.018-.041-.06-.041-.126Zm-8.209,5.419a.176.176,0,0,1-.041.14.234.234,0,0,1-.14.032h-.452a.258.258,0,0,1-.145-.032c-.03-.021-.045-.068-.045-.14V144.32a2.259,2.259,0,0,1,.077-.592,1.3,1.3,0,0,1,.253-.5,1.227,1.227,0,0,1,.47-.339,1.842,1.842,0,0,1,.727-.126h2.483c.072,0,.119.015.14.045a.256.256,0,0,1,.032.145v.37a.253.253,0,0,1-.032.149c-.021.027-.067.04-.14.04h-2.475a.765.765,0,0,0-.546.163.691.691,0,0,0-.167.515v1.264h2.854a.161.161,0,0,1,.131.041.234.234,0,0,1,.032.14v.352a.261.261,0,0,1-.032.14.145.145,0,0,1-.131.05h-2.854Zm-5.391-2.98a5.722,5.722,0,0,0-.077-.953,2.4,2.4,0,0,0-.28-.808,1.522,1.522,0,0,0-.555-.56,1.757,1.757,0,0,0-.9-.208,1.623,1.623,0,0,0-1.422.741,2.493,2.493,0,0,0-.343.795,3.934,3.934,0,0,0-.113.957,5.4,5.4,0,0,0,.09,1.025,2.338,2.338,0,0,0,.3.8,1.485,1.485,0,0,0,.564.528,1.853,1.853,0,0,0,.885.19,1.724,1.724,0,0,0,.88-.208,1.621,1.621,0,0,0,.574-.56,2.434,2.434,0,0,0,.307-.8A4.784,4.784,0,0,0,119.031,145.945Zm.849-.036a3.812,3.812,0,0,1-.682,2.438,2.445,2.445,0,0,1-2.027.849,2.394,2.394,0,0,1-2-.84,3.814,3.814,0,0,1-.664-2.411,4.408,4.408,0,0,1,.2-1.4,3.019,3.019,0,0,1,.56-1.025,2.361,2.361,0,0,1,.849-.632,2.628,2.628,0,0,1,1.07-.217,2.883,2.883,0,0,1,1.165.221,2.2,2.2,0,0,1,.844.641,2.856,2.856,0,0,1,.51,1.016A4.908,4.908,0,0,1,119.88,145.909Zm-8.669,1.5a1.7,1.7,0,0,1-.172.786,1.625,1.625,0,0,1-.47.56,2,2,0,0,1-.7.334,3.389,3.389,0,0,1-.876.108q-.262,0-.551-.022a5.769,5.769,0,0,1-.587-.077,5.138,5.138,0,0,1-.592-.144,3.7,3.7,0,0,1-.564-.226q-.1-.054-.036-.181l.217-.479a.1.1,0,0,1,.145-.054,5.243,5.243,0,0,0,.971.321,4.2,4.2,0,0,0,.916.113,1.907,1.907,0,0,0,1.07-.257.842.842,0,0,0,.384-.745.855.855,0,0,0-.095-.411,1.075,1.075,0,0,0-.28-.325,2.283,2.283,0,0,0-.465-.28q-.28-.131-.65-.266-.5-.181-.871-.361a2.883,2.883,0,0,1-.623-.393,1.46,1.46,0,0,1-.375-.474,1.373,1.373,0,0,1-.127-.605,1.536,1.536,0,0,1,.515-1.2,2.18,2.18,0,0,1,1.5-.46,5.663,5.663,0,0,1,.953.086,4.022,4.022,0,0,1,.935.275.111.111,0,0,1,.063.154l-.2.506c-.018.042-.035.066-.05.072a.1.1,0,0,1-.068-.009,4.785,4.785,0,0,0-.88-.257,4.373,4.373,0,0,0-.781-.077,1.31,1.31,0,0,0-.84.239.748.748,0,0,0-.3.609.73.73,0,0,0,.1.388,1.031,1.031,0,0,0,.292.3,2.775,2.775,0,0,0,.491.262c.2.084.434.18.7.289.253.1.492.2.721.3a2.734,2.734,0,0,1,.6.375,1.683,1.683,0,0,1,.418.515A1.5,1.5,0,0,1,111.211,147.408Z" transform="translate(-83.565 -111.802)"/><path class="b" d="M264.542,13.339a6.968,6.968,0,0,0-2.222-1.5,7.19,7.19,0,0,0-2.791-.537h-5.077a1.4,1.4,0,0,0-1.208.524,1.879,1.879,0,0,0,0,2.383,1.4,1.4,0,0,0,1.208.523h5.077a3.3,3.3,0,0,1,2.506,1.029,4.356,4.356,0,0,1,0,5.671,2.819,2.819,0,0,1-2.652.936H254.31a6.47,6.47,0,0,1-1.953-.135,3.389,3.389,0,0,1-1.181-.8,3.619,3.619,0,0,1-1-2.626V1.86l-.007-.2a1.564,1.564,0,0,0-.516-1.2A1.726,1.726,0,0,0,248.485,0h-.041q-.064,0-.129,0a1.767,1.767,0,0,0-1.172.452,1.628,1.628,0,0,0-.515,1.338l.007,12.769v4.3a7.006,7.006,0,0,0,2.071,4.987,7.305,7.305,0,0,0,2.23,1.467,6.92,6.92,0,0,0,2.652.539H259.2a6.83,6.83,0,0,0,3.124-.539,7.128,7.128,0,0,0,2.222-1.491,6.973,6.973,0,0,0,1.493-2.228,8.475,8.475,0,0,0,0-6.009,6.778,6.778,0,0,0-1.493-2.247" transform="translate(-193.271)"/><path class="b" d="M365.569,54.366a6.773,6.773,0,0,0-2.078-1.48,6.177,6.177,0,0,0-2.511-.525h-6.858a6.17,6.17,0,0,0-2.517.525,6.77,6.77,0,0,0-2.081,1.48,7.026,7.026,0,0,0-1.409,2.258,9.082,9.082,0,0,0,0,6.073,6.549,6.549,0,0,0,6.011,4.189h6.807a5.992,5.992,0,0,0,2.517-.526,6.724,6.724,0,0,0,2.081-1.48,6.948,6.948,0,0,0,1.015-1.369H360.69c-2.189,0-4.379-.019-6.568-.019a3.194,3.194,0,0,1-2.343-1,4.277,4.277,0,0,1-.008-5.628,3.063,3.063,0,0,1,2.352-1.109h6.807c1.347,0,2.541,1.414,2.893,2.636h-9.229a1.419,1.419,0,0,0-1.213.493,1.925,1.925,0,0,0,0,2.335,1.423,1.423,0,0,0,1.213.492h12.663a8.3,8.3,0,0,0-1.687-7.348" transform="translate(-272.39 -41.032)"/><path class="b" d="M462.339,52.861a1.588,1.588,0,0,0-1.307-.5h-5.805a6.55,6.55,0,0,0-2.668.553,7.3,7.3,0,0,0-3.728,3.729,6.569,6.569,0,0,0-.559,2.669v5.83a1.6,1.6,0,0,0,.51,1.309,1.734,1.734,0,0,0,2.3,0,1.612,1.612,0,0,0,.5-1.309v-5.83a3.775,3.775,0,0,1,3.643-3.645h5.805a1.6,1.6,0,0,0,1.307-.5,1.807,1.807,0,0,0,.43-.913v-.476a1.818,1.818,0,0,0-.43-.915" transform="translate(-351.29 -41.032)"/><path class="b" d="M72.857,52.36a1.77,1.77,0,0,0-1.187.458,1.662,1.662,0,0,0-.525,1.348V65.23a1.46,1.46,0,0,0,.507,1.249,1.982,1.982,0,0,0,2.4,0,1.466,1.466,0,0,0,.506-1.249V54.166a1.641,1.641,0,0,0-.522-1.348,1.765,1.765,0,0,0-1.183-.458" transform="translate(-55.753 -41.032)"/><path class="b" d="M104.413,52.36h-1.43a6.946,6.946,0,0,0-2.791.557,6.764,6.764,0,0,0-2.231,1.532A7.112,7.112,0,0,0,95.942,59.4v5.826a1.422,1.422,0,0,0,.5,1.217,1.861,1.861,0,0,0,1.18.41,1.885,1.885,0,0,0,1.178-.41,1.424,1.424,0,0,0,.5-1.217V59.4a3.212,3.212,0,0,1,.747-2.08A3.042,3.042,0,0,1,102.7,55.98H105.9a3.625,3.625,0,0,1,2.512.975,3.17,3.17,0,0,1,1.108,2.443v5.658a1.651,1.651,0,0,0,.531,1.363,1.777,1.777,0,0,0,2.4,0,1.649,1.649,0,0,0,.522-1.363V59.4a3.268,3.268,0,0,1,.726-2.076,3.88,3.88,0,0,1,1.5-1.183,2.01,2.01,0,0,1,1.023-.172h3.388a3.789,3.789,0,0,1,2.555.984A3.161,3.161,0,0,1,123.3,59.4v5.852a1.4,1.4,0,0,0,.509,1.192,1.833,1.833,0,0,0,1.169.41,1.855,1.855,0,0,0,1.178-.41,1.384,1.384,0,0,0,.5-1.192V59.4a6.732,6.732,0,0,0-.556-2.681,7.22,7.22,0,0,0-1.529-2.266,7.121,7.121,0,0,0-2.268-1.532,6.676,6.676,0,0,0-2.692-.557h-2.989a6.217,6.217,0,0,0-2.858.654,8.822,8.822,0,0,0-2.3,1.635l-.208.209-.211-.209a8.564,8.564,0,0,0-2.3-1.635,6.194,6.194,0,0,0-2.854-.654Z" transform="translate(-75.185 -41.032)"/><path class="b" d="M4.463,21.385A3.441,3.441,0,0,1,3.38,18.86V3.274h0V1.79A1.639,1.639,0,0,0,2.863.452,1.788,1.788,0,0,0,1.687,0,1.767,1.767,0,0,0,.515.452,1.628,1.628,0,0,0,0,1.79L.007,14.56v4.3a7.006,7.006,0,0,0,2.071,4.987,7.3,7.3,0,0,0,2.23,1.467,6.919,6.919,0,0,0,2.682.539h4.832a1.486,1.486,0,0,0,1.271-.517,2.018,2.018,0,0,0,0-2.447,1.492,1.492,0,0,0-1.271-.516H7.682c-1.416,0-2.113.134-3.218-.988"/><path class="c" d="M72.98,29.155a1.728,1.728,0,1,1-1.728,1.728,1.728,1.728,0,0,1,1.728-1.728" transform="translate(-55.837 -22.847)"/></g></g></svg>