<svg width="219" height="33" viewBox="0 0 219 33" fill="none" xmlns="http://www.w3.org/2000/svg">
<path d="M194.083 32.2492V0.632339H200.858V26.1517H218.699V32.2492H194.083Z" fill="black"/>
<path d="M163.929 32.2492V0.632339H188.816V6.59438H170.523V26.2872H189.132V32.2492H163.929ZM167.361 19.0153V13.2339H186.648V19.0153H167.361Z" fill="black"/>
<path d="M130.643 32.2492V0.632339H147.084C149.222 0.632339 151.119 1.06895 152.775 1.94218C154.461 2.7853 155.771 3.95964 156.704 5.46521C157.638 6.97077 158.104 8.70218 158.104 10.6594C158.104 12.6166 157.608 14.3782 156.614 15.9439C155.62 17.5097 154.28 18.7594 152.594 19.6928C150.908 20.5962 149.026 21.0478 146.948 21.0478H137.192V32.2492H130.643ZM151.781 32.2492L142.206 17.9765L149.252 16.8473L159.73 32.2944L151.781 32.2492ZM137.192 15.5374H146.361C147.294 15.5374 148.122 15.3417 148.845 14.9503C149.568 14.5287 150.14 13.9717 150.561 13.2791C151.013 12.5865 151.239 11.8036 151.239 10.9304C151.239 10.0271 150.998 9.24418 150.516 8.58173C150.065 7.91928 149.432 7.40739 148.619 7.04605C147.836 6.68472 146.948 6.50405 145.954 6.50405H137.192V15.5374Z" fill="black"/>
<path d="M109.584 32.2492V6.72989H98.563V0.632339H127.605V6.72989H116.359V32.2492H109.584Z" fill="black"/>
<path d="M63.4534 32.2492V0.632339H69.7767L90.7794 24.2547H89.7857C89.6352 23.2309 89.5147 22.2372 89.4244 21.2737C89.3341 20.3101 89.2437 19.3465 89.1534 18.383C89.0932 17.3893 89.0329 16.4107 88.9727 15.4471C88.9426 14.4534 88.9125 13.4598 88.8824 12.4661C88.8824 11.4423 88.8824 10.3734 88.8824 9.25924V0.632339H95.5219V32.2492H89.1082L67.7442 8.40106L69.1896 8.44623C69.2799 9.37968 69.3702 10.268 69.4606 11.1111C69.581 11.9542 69.6714 12.7672 69.7316 13.5501C69.7918 14.333 69.852 15.1159 69.9122 15.8988C69.9725 16.6516 70.0176 17.4495 70.0477 18.2926C70.0779 19.1056 70.0929 19.9638 70.0929 20.8672V32.2492H63.4534Z" fill="black"/>
<path d="M33.2991 32.2492V0.632339H58.1861V6.59438H39.8935V26.2872H58.5023V32.2492H33.2991ZM36.7318 19.0153V13.2339H56.0181V19.0153H36.7318Z" fill="black"/>
<path d="M15.5637 32.7009C13.3354 32.7009 11.2879 32.4751 9.42097 32.0234C7.55407 31.5416 5.86784 30.8641 4.36227 29.9909C2.8567 29.1177 1.51675 28.0638 0.342407 26.8292L4.0461 21.635C6.00334 23.5922 7.96057 24.9623 9.91781 25.7452C11.875 26.5281 13.8925 26.9195 15.9702 26.9195C17.0241 26.9195 18.0479 26.784 19.0415 26.513C20.0653 26.242 20.8934 25.8506 21.5257 25.3387C22.1882 24.7967 22.5194 24.1041 22.5194 23.261C22.5194 22.719 22.3538 22.2523 22.0226 21.8608C21.6913 21.4694 21.2547 21.1382 20.7127 20.8672C20.1707 20.5961 19.5384 20.3703 18.8157 20.1896C18.093 19.9789 17.3252 19.8133 16.5122 19.6928C15.7293 19.5423 14.9163 19.4218 14.0732 19.3315C12.1762 19.0304 10.4749 18.6239 8.9693 18.112C7.49385 17.6001 6.22917 16.9527 5.17528 16.1698C4.12138 15.3568 3.32343 14.4233 2.78142 13.3694C2.26953 12.2854 2.01359 11.0509 2.01359 9.66574C2.01359 8.19028 2.35987 6.85033 3.05243 5.64587C3.74499 4.44142 4.70855 3.41764 5.94311 2.57452C7.17768 1.7314 8.60797 1.09906 10.234 0.677504C11.8901 0.225834 13.6667 0 15.5637 0C17.6414 0 19.4932 0.210779 21.1192 0.632338C22.7452 1.0539 24.1906 1.65612 25.4553 2.43902C26.7199 3.1918 27.7588 4.09514 28.5718 5.14904L24.6874 9.62057C23.9346 8.83767 23.0463 8.16017 22.0226 7.58805C21.0289 7.01594 19.975 6.57933 18.8609 6.27821C17.7468 5.9771 16.6176 5.82654 15.4733 5.82654C14.2087 5.82654 13.0946 5.96204 12.131 6.23304C11.1975 6.47393 10.4448 6.85033 9.87264 7.36222C9.33064 7.844 9.05964 8.46128 9.05964 9.21407C9.05964 9.81629 9.27042 10.3432 9.69197 10.7949C10.1135 11.2466 10.6706 11.623 11.3632 11.9241C12.0557 12.1951 12.8537 12.436 13.757 12.6468C14.6603 12.8274 15.6089 12.993 16.6025 13.1436C18.349 13.4146 20.0051 13.7609 21.5709 14.1824C23.1367 14.5739 24.5218 15.1159 25.7263 15.8084C26.9307 16.4709 27.8642 17.3441 28.5266 18.4281C29.1891 19.482 29.5203 20.8069 29.5203 22.4028C29.5203 24.5407 28.9181 26.3775 27.7136 27.9132C26.5393 29.4489 24.9132 30.6383 22.8356 31.4814C20.7579 32.2944 18.3339 32.7009 15.5637 32.7009Z" fill="black"/>
</svg>
