<svg class="mx-auto mb-4 h-6 w-20" fill="none" viewBox="0 0 154 24" xmlns="http://www.w3.org/2000/svg"><path d="M153.023 17.4971L142.699 2.63701C141.917 1.54205 140.718 0.968506 139.518 0.968506C138.319 0.968506 137.12 1.54205 136.39 2.63701L126.118 17.4971C125.649 18.2271 125.44 18.957 125.44 19.7391C125.44 21.7205 127.005 23.5454 129.299 23.5454H149.842C152.136 23.5454 153.701 21.6683 153.701 19.687C153.701 18.957 153.492 18.1749 153.023 17.4971ZM131.28 18.6442L139.571 6.65184L147.861 18.6442H131.28Z" fill="#101828"></path><path d="M28.8759 1.38563L17.7179 18.2792L6.6119 1.38563H0.615723L14.5373 22.294C15.2672 23.3368 16.4665 23.9625 17.7179 23.9625C18.9692 23.9625 20.1685 23.389 20.8984 22.294L34.82 1.38563H28.8759Z" fill="#101828"></path><path d="M50.3579 2.63701C49.5758 1.54205 48.3765 0.968506 47.1773 0.968506C45.9781 0.968506 44.7267 1.54205 43.9967 2.63701L33.725 17.4971C33.2036 18.2271 33.0472 18.957 33.0472 19.687C33.0472 21.7205 34.6114 23.5454 36.8535 23.5454H57.449C59.7432 23.5454 61.3074 21.6683 61.3074 19.687C61.3074 18.957 61.0989 18.1749 60.6296 17.4971L50.3579 2.63701ZM38.887 18.6442L47.1773 6.65184L55.4677 18.6442H38.887Z" fill="#101828"></path><path d="M125.91 6.28685V1.38563H100.361V6.28685H110.685V23.5454H115.586V6.28685H125.91Z" fill="#101828"></path><path d="M89.0984 17.8099L73.9255 2.63701C72.5177 1.22921 71.7355 0.968506 70.5363 0.968506C68.2421 0.968506 66.73 2.48058 66.73 4.77477V23.5454H71.6313V7.1211L86.8042 22.294C88.0034 23.4933 88.9941 23.9625 90.1933 23.9625C92.4875 23.9625 93.9996 22.4505 93.9996 20.1563V1.43777H89.0984V17.8099Z" fill="#101828"></path></svg>